<svg xmlns="http://www.w3.org/2000/svg" viewBox="0 0 3978.57 129.75"><defs><style>.cls-1,.cls-3{opacity:0.2;}.cls-2,.cls-3{fill:#5bb28c;}.cls-4{fill:#f3f1be;}</style></defs><title>Asset 4</title><g id="Layer_2" data-name="Layer 2"><g id="Layer_1-2" data-name="Layer 1"><g class="cls-1"><circle class="cls-2" cx="762.76" cy="77.79" r="51.96"/><circle class="cls-2" cx="849.19" cy="77.79" r="51.96"/><circle class="cls-2" cx="937.68" cy="77.79" r="51.96"/><circle class="cls-2" cx="1024.11" cy="77.79" r="51.96"/><circle class="cls-2" cx="1112.59" cy="77.79" r="51.96"/><circle class="cls-2" cx="1199.02" cy="77.79" r="51.96"/><circle class="cls-2" cx="1287.51" cy="77.79" r="51.96"/><circle class="cls-2" cx="1373.94" cy="77.79" r="51.96"/><circle class="cls-2" cx="1376" cy="77.79" r="51.96"/><circle class="cls-2" cx="1462.43" cy="77.79" r="51.96"/><circle class="cls-2" cx="1550.91" cy="77.79" r="51.96"/><circle class="cls-2" cx="1637.34" cy="77.79" r="51.96"/><circle class="cls-2" cx="1725.83" cy="77.79" r="51.96"/><circle class="cls-2" cx="1812.26" cy="77.79" r="51.96"/><circle class="cls-2" cx="1900.74" cy="77.79" r="51.96"/><circle class="cls-2" cx="1987.17" cy="77.79" r="51.96"/></g><circle class="cls-3" cx="356.95" cy="77.79" r="51.96"/><circle class="cls-3" cx="460.2" cy="77.79" r="51.96"/><circle class="cls-3" cx="563.27" cy="77.79" r="51.96"/><circle class="cls-3" cx="663.15" cy="77.79" r="51.96"/><circle class="cls-3" cx="51.96" cy="77.79" r="51.96"/><circle class="cls-3" cx="151.85" cy="77.79" r="51.96"/><circle class="cls-3" cx="253.79" cy="77.79" r="51.96"/><path class="cls-4" d="M747.25,25.83H660.82a52,52,0,0,0,94,39.85,52,52,0,0,1-7.57-39.85Z"/><path class="cls-4" d="M835.74,25.83H747.25a52,52,0,0,0,95,38.24,52,52,0,0,1-6.54-38.24Z"/><path class="cls-4" d="M922.17,25.83H835.74a52,52,0,0,0,94,39.85,52,52,0,0,1-7.57-39.85Z"/><path class="cls-4" d="M1010.65,25.83H922.17a52,52,0,0,0,95,38.24,52,52,0,0,1-6.54-38.24Z"/><path class="cls-4" d="M1097.08,25.83h-86.43a52,52,0,0,0,94,39.85,52,52,0,0,1-7.57-39.85Z"/><path class="cls-4" d="M1185.57,25.83h-88.49a52,52,0,0,0,95,38.24,52,52,0,0,1-6.54-38.24Z"/><path class="cls-4" d="M1272,25.83h-86.43a52,52,0,0,0,94,39.85A52,52,0,0,1,1272,25.83Z"/><path class="cls-4" d="M1272.88,36.83a52.13,52.13,0,0,1,1.18-11H1272a52,52,0,0,0,50.78,63l1,0A52,52,0,0,1,1272.88,36.83Z"/><path class="cls-4" d="M1359.31,36.83a52.13,52.13,0,0,1,1.18-11h-86.43a51.95,51.95,0,0,0,49.75,62.93l1,0a51.91,51.91,0,0,0,43.21-23.11A51.71,51.71,0,0,1,1359.31,36.83Z"/><path class="cls-4" d="M1449,25.83h-88.49a52,52,0,0,0,95,38.24A52,52,0,0,1,1449,25.83Z"/><path class="cls-4" d="M1535.4,25.83H1449a52,52,0,0,0,94,39.85,52,52,0,0,1-7.57-39.85Z"/><path class="cls-4" d="M1623.89,25.83H1535.4a52,52,0,0,0,95,38.24,52,52,0,0,1-6.54-38.24Z"/><path class="cls-4" d="M1710.32,25.83h-86.43a52,52,0,0,0,94,39.85,52,52,0,0,1-7.57-39.85Z"/><path class="cls-4" d="M1798.8,25.83h-88.49a52,52,0,0,0,95,38.24,52,52,0,0,1-6.54-38.24Z"/><path class="cls-4" d="M1885.23,25.83H1798.8a52,52,0,0,0,94,39.85,52,52,0,0,1-7.57-39.85Z"/><path class="cls-4" d="M1885.23,25.83a52,52,0,1,0,101.57,0Z"/><path class="cls-4" d="M484.07,25.83H397.64a52,52,0,0,0,94,39.85,52,52,0,0,1-7.57-39.85Z"/><path class="cls-4" d="M572.56,25.83H484.07a52,52,0,0,0,95,38.24,52,52,0,0,1-6.54-38.24Z"/><path class="cls-4" d="M659,25.83H572.56a52,52,0,0,0,94,39.85A52,52,0,0,1,659,25.83Z"/><path class="cls-4" d="M747.48,25.83H659a52,52,0,0,0,95,38.24,52,52,0,0,1-6.54-38.24Z"/><path class="cls-4" d="M833.91,25.83H747.48a52,52,0,0,0,94,39.85,52,52,0,0,1-7.57-39.85Z"/><path class="cls-4" d="M922.39,25.83H833.91a52,52,0,0,0,95,38.24,52,52,0,0,1-6.54-38.24Z"/><path class="cls-4" d="M1008.82,25.83H922.39a52,52,0,0,0,94,39.85,52,52,0,0,1-7.57-39.85Z"/><path class="cls-4" d="M1009.7,36.83a52.13,52.13,0,0,1,1.18-11h-2.06a52,52,0,0,0,50.78,63l1,0A52,52,0,0,1,1009.7,36.83Z"/><path class="cls-4" d="M1096.13,36.83a52.13,52.13,0,0,1,1.18-11h-86.43a51.95,51.95,0,0,0,49.75,62.93l1,0a51.91,51.91,0,0,0,43.21-23.11A51.71,51.71,0,0,1,1096.13,36.83Z"/><path class="cls-4" d="M1185.79,25.83h-88.49a52,52,0,0,0,95,38.24,52,52,0,0,1-6.54-38.24Z"/><path class="cls-4" d="M1272.22,25.83h-86.43a52,52,0,0,0,94,39.85,52,52,0,0,1-7.57-39.85Z"/><path class="cls-4" d="M1360.71,25.83h-88.49a52,52,0,0,0,95,38.24,52,52,0,0,1-6.54-38.24Z"/><path class="cls-4" d="M1447.14,25.83h-86.43a52,52,0,0,0,94,39.85,52,52,0,0,1-7.57-39.85Z"/><path class="cls-4" d="M1535.63,25.83h-88.49a52,52,0,0,0,95,38.24,52,52,0,0,1-6.54-38.24Z"/><path class="cls-4" d="M1622.06,25.83h-86.43a52,52,0,0,0,94,39.85,52,52,0,0,1-7.57-39.85Z"/><path class="cls-4" d="M1622.06,25.83a52,52,0,1,0,101.57,0Z"/><rect class="cls-4" x="659.64" width="1328.33" height="36.83"/><rect class="cls-4" x="396.26" width="1328.33" height="36.83"/><path class="cls-4" d="M134.35,25.83H47.92a52,52,0,0,0,94,39.85,52,52,0,0,1-7.57-39.85Z"/><path class="cls-4" d="M222.83,25.83H134.35a52,52,0,0,0,95,38.24,52,52,0,0,1-6.54-38.24Z"/><path class="cls-4" d="M309.26,25.83H222.83a52,52,0,0,0,94,39.85,52,52,0,0,1-7.57-39.85Z"/><path class="cls-4" d="M397.75,25.83H309.26a52,52,0,0,0,95,38.24,52,52,0,0,1-6.54-38.24Z"/><path class="cls-4" d="M484.18,25.83H397.75a52,52,0,0,0,94,39.85,52,52,0,0,1-7.57-39.85Z"/><path class="cls-4" d="M572.66,25.83H484.18a52,52,0,0,0,95,38.24,52,52,0,0,1-6.54-38.24Z"/><path class="cls-4" d="M659.09,25.83H572.66a52,52,0,0,0,94,39.85,52,52,0,0,1-7.57-39.85Z"/><path class="cls-4" d="M660,36.83a52.13,52.13,0,0,1,1.18-11h-2.06a52,52,0,0,0,50.78,63l1,0A52,52,0,0,1,660,36.83Z"/><path class="cls-4" d="M746.4,36.83a52.13,52.13,0,0,1,1.18-11H661.15A51.95,51.95,0,0,0,710.9,88.77l1,0a51.91,51.91,0,0,0,43.21-23.11A51.71,51.71,0,0,1,746.4,36.83Z"/><path class="cls-4" d="M836.07,25.83H747.58a52,52,0,0,0,95,38.24,52,52,0,0,1-6.54-38.24Z"/><path class="cls-4" d="M922.5,25.83H836.07a52,52,0,0,0,94,39.85,52,52,0,0,1-7.57-39.85Z"/><path class="cls-4" d="M1011,25.83H922.5a52,52,0,0,0,95,38.24A52,52,0,0,1,1011,25.83Z"/><path class="cls-4" d="M1097.41,25.83H1011a52,52,0,0,0,94,39.85,52,52,0,0,1-7.57-39.85Z"/><path class="cls-4" d="M1185.9,25.83h-88.49a52,52,0,0,0,95,38.24,52,52,0,0,1-6.54-38.24Z"/><path class="cls-4" d="M1272.33,25.83H1185.9a52,52,0,0,0,94,39.85,52,52,0,0,1-7.57-39.85Z"/><path class="cls-4" d="M1272.33,25.83a52,52,0,1,0,101.57,0Z"/><rect class="cls-4" x="46.53" width="1328.33" height="36.83"/><g class="cls-1"><circle class="cls-2" cx="2702.2" cy="77.79" r="51.96"/><circle class="cls-2" cx="2788.63" cy="77.79" r="51.96"/><circle class="cls-2" cx="2877.12" cy="77.79" r="51.96"/><circle class="cls-2" cx="2963.55" cy="77.79" r="51.96"/><circle class="cls-2" cx="3052.03" cy="77.79" r="51.96"/><circle class="cls-2" cx="3138.46" cy="77.79" r="51.96"/><circle class="cls-2" cx="3226.95" cy="77.79" r="51.96"/><circle class="cls-2" cx="3313.38" cy="77.79" r="51.96"/><circle class="cls-2" cx="3315.44" cy="77.79" r="51.96"/><circle class="cls-2" cx="3401.87" cy="77.79" r="51.96"/><circle class="cls-2" cx="3490.35" cy="77.79" r="51.96"/><circle class="cls-2" cx="3576.78" cy="77.79" r="51.96"/><circle class="cls-2" cx="3665.27" cy="77.79" r="51.96"/><circle class="cls-2" cx="3751.7" cy="77.79" r="51.96"/><circle class="cls-2" cx="3840.18" cy="77.79" r="51.96"/><circle class="cls-2" cx="3926.61" cy="77.79" r="51.96"/></g><circle class="cls-3" cx="2296.39" cy="77.79" r="51.96"/><circle class="cls-3" cx="2399.64" cy="77.79" r="51.96"/><circle class="cls-3" cx="2502.71" cy="77.79" r="51.96"/><circle class="cls-3" cx="2602.59" cy="77.79" r="51.96"/><circle class="cls-3" cx="2091.29" cy="77.79" r="51.96"/><circle class="cls-3" cx="2193.23" cy="77.79" r="51.96"/><path class="cls-4" d="M2686.69,25.83h-86.43a52,52,0,0,0,94,39.85,52,52,0,0,1-7.57-39.85Z"/><path class="cls-4" d="M2775.18,25.83h-88.49a52,52,0,0,0,95,38.24,52,52,0,0,1-6.54-38.24Z"/><path class="cls-4" d="M2861.61,25.83h-86.43a52,52,0,0,0,94,39.85,52,52,0,0,1-7.57-39.85Z"/><path class="cls-4" d="M2950.09,25.83h-88.49a52,52,0,0,0,95,38.24,52,52,0,0,1-6.54-38.24Z"/><path class="cls-4" d="M3036.52,25.83h-86.43a52,52,0,0,0,94,39.85,52,52,0,0,1-7.57-39.85Z"/><path class="cls-4" d="M3125,25.83h-88.49a52,52,0,0,0,95,38.24A52,52,0,0,1,3125,25.83Z"/><path class="cls-4" d="M3211.44,25.83H3125a52,52,0,0,0,94,39.85,52,52,0,0,1-7.57-39.85Z"/><path class="cls-4" d="M3212.32,36.83a52.13,52.13,0,0,1,1.18-11h-2.06a52,52,0,0,0,50.78,63l1,0A52,52,0,0,1,3212.32,36.83Z"/><path class="cls-4" d="M3298.75,36.83a52.13,52.13,0,0,1,1.18-11H3213.5a51.95,51.95,0,0,0,49.75,62.93l1,0a51.91,51.91,0,0,0,43.21-23.11A51.71,51.71,0,0,1,3298.75,36.83Z"/><path class="cls-4" d="M3388.41,25.83h-88.49a52,52,0,0,0,95,38.24,52,52,0,0,1-6.54-38.24Z"/><path class="cls-4" d="M3474.84,25.83h-86.43a52,52,0,0,0,94,39.85,52,52,0,0,1-7.57-39.85Z"/><path class="cls-4" d="M3563.33,25.83h-88.49a52,52,0,0,0,95,38.24,52,52,0,0,1-6.54-38.24Z"/><path class="cls-4" d="M3649.76,25.83h-86.43a52,52,0,0,0,94,39.85,52,52,0,0,1-7.57-39.85Z"/><path class="cls-4" d="M3738.24,25.83h-88.49a52,52,0,0,0,95,38.24,52,52,0,0,1-6.54-38.24Z"/><path class="cls-4" d="M3824.67,25.83h-86.43a52,52,0,0,0,94,39.85,52,52,0,0,1-7.57-39.85Z"/><path class="cls-4" d="M3824.67,25.83a52,52,0,1,0,101.57,0Z"/><path class="cls-4" d="M2423.51,25.83h-86.43a52,52,0,0,0,94,39.85,52,52,0,0,1-7.57-39.85Z"/><path class="cls-4" d="M2512,25.83h-88.49a52,52,0,0,0,95,38.24A52,52,0,0,1,2512,25.83Z"/><path class="cls-4" d="M2598.43,25.83H2512a52,52,0,0,0,94,39.85,52,52,0,0,1-7.57-39.85Z"/><path class="cls-4" d="M2686.92,25.83h-88.49a52,52,0,0,0,95,38.24,52,52,0,0,1-6.54-38.24Z"/><path class="cls-4" d="M2773.35,25.83h-86.43a52,52,0,0,0,94,39.85,52,52,0,0,1-7.57-39.85Z"/><path class="cls-4" d="M2861.83,25.83h-88.49a52,52,0,0,0,95,38.24,52,52,0,0,1-6.54-38.24Z"/><path class="cls-4" d="M2948.26,25.83h-86.43a52,52,0,0,0,94,39.85,52,52,0,0,1-7.57-39.85Z"/><path class="cls-4" d="M2949.14,36.83a52.13,52.13,0,0,1,1.18-11h-2.06a52,52,0,0,0,50.78,63l1,0A52,52,0,0,1,2949.14,36.83Z"/><path class="cls-4" d="M3035.57,36.83a52.13,52.13,0,0,1,1.18-11h-86.43a51.95,51.95,0,0,0,49.75,62.93l1,0a51.91,51.91,0,0,0,43.21-23.11A51.71,51.71,0,0,1,3035.57,36.83Z"/><path class="cls-4" d="M3125.24,25.83h-88.49a52,52,0,0,0,95,38.24,52,52,0,0,1-6.54-38.24Z"/><path class="cls-4" d="M3211.66,25.83h-86.43a52,52,0,0,0,94,39.85,52,52,0,0,1-7.57-39.85Z"/><path class="cls-4" d="M3300.15,25.83h-88.49a52,52,0,0,0,95,38.24,52,52,0,0,1-6.54-38.24Z"/><path class="cls-4" d="M3386.58,25.83h-86.43a52,52,0,0,0,94,39.85,52,52,0,0,1-7.57-39.85Z"/><path class="cls-4" d="M3475.07,25.83h-88.49a52,52,0,0,0,95,38.24,52,52,0,0,1-6.54-38.24Z"/><path class="cls-4" d="M3561.5,25.83h-86.43a52,52,0,0,0,94,39.85,52,52,0,0,1-7.57-39.85Z"/><path class="cls-4" d="M3561.5,25.83a52,52,0,1,0,101.57,0Z"/><rect class="cls-4" x="2599.08" width="1328.33" height="36.83"/><rect class="cls-4" x="2335.7" width="1328.33" height="36.83"/><path class="cls-4" d="M2073.79,25.83h-86.43a52,52,0,0,0,94,39.85,52,52,0,0,1-7.57-39.85Z"/><path class="cls-4" d="M2162.27,25.83h-88.49a52,52,0,0,0,95,38.24,52,52,0,0,1-6.54-38.24Z"/><path class="cls-4" d="M2248.7,25.83h-86.43a52,52,0,0,0,94,39.85,52,52,0,0,1-7.57-39.85Z"/><path class="cls-4" d="M2337.19,25.83H2248.7a52,52,0,0,0,95,38.24,52,52,0,0,1-6.54-38.24Z"/><path class="cls-4" d="M2423.62,25.83h-86.43a52,52,0,0,0,94,39.85,52,52,0,0,1-7.57-39.85Z"/><path class="cls-4" d="M2512.1,25.83h-88.49a52,52,0,0,0,95,38.24,52,52,0,0,1-6.54-38.24Z"/><path class="cls-4" d="M2598.53,25.83H2512.1a52,52,0,0,0,94,39.85,52,52,0,0,1-7.57-39.85Z"/><path class="cls-4" d="M2599.41,36.83a52.13,52.13,0,0,1,1.18-11h-2.06a52,52,0,0,0,50.78,63l1,0A52,52,0,0,1,2599.41,36.83Z"/><path class="cls-4" d="M2685.84,36.83a52.13,52.13,0,0,1,1.18-11h-86.43a51.95,51.95,0,0,0,49.75,62.93l1,0a51.91,51.91,0,0,0,43.21-23.11A51.71,51.71,0,0,1,2685.84,36.83Z"/><path class="cls-4" d="M2775.51,25.83H2687a52,52,0,0,0,95,38.24,52,52,0,0,1-6.54-38.24Z"/><path class="cls-4" d="M2861.94,25.83h-86.43a52,52,0,0,0,94,39.85,52,52,0,0,1-7.57-39.85Z"/><path class="cls-4" d="M2950.42,25.83h-88.49a52,52,0,0,0,95,38.24,52,52,0,0,1-6.54-38.24Z"/><path class="cls-4" d="M3036.85,25.83h-86.43a52,52,0,0,0,94,39.85,52,52,0,0,1-7.57-39.85Z"/><path class="cls-4" d="M3125.34,25.83h-88.49a52,52,0,0,0,95,38.24,52,52,0,0,1-6.54-38.24Z"/><path class="cls-4" d="M3211.77,25.83h-86.43a52,52,0,0,0,94,39.85,52,52,0,0,1-7.57-39.85Z"/><path class="cls-4" d="M3211.77,25.83a52,52,0,1,0,101.57,0Z"/><rect class="cls-4" x="1985.97" width="1328.33" height="36.83"/></g></g></svg>