<svg height="512pt" viewBox="0 0 512 512" width="512pt" xmlns="http://www.w3.org/2000/svg"><path d="m240 512c-26.464844 0-48-21.535156-48-48v-48h96v48c0 26.464844-21.535156 48-48 48zm0 0" fill="#3c3c47"/><path d="m80 512c-26.464844 0-48-21.535156-48-48v-48h96v48c0 26.464844-21.535156 48-48 48zm0 0" fill="#3c3c47"/><path d="m32 416h96v48h-96zm0 0" fill="#202026"/><path d="m192 416h96v48h-96zm0 0" fill="#202026"/><path d="m320 352v96h-320v-96l33.601562-48 16.796876-96h219.203124l16.796876 96zm0 0" fill="#ff6853"/><path d="m286.398438 304h-252.796876l16.796876-96h219.203124zm0 0" fill="#48c8ef"/><path d="m384 256h32v240h-32zm0 0" fill="#b0b4b9"/><path d="m384 448h32v48h-32zm0 0" fill="#9da2a5"/><path d="m320 480h160v32h-160zm0 0" fill="#3c3c47"/><path d="m384 240h32v64h-32zm0 0" fill="#9da2a5"/><path d="m448 272h-96c-35.296875 0-64-28.703125-64-64v-144c0-35.296875 28.703125-64 64-64h96c35.296875 0 64 28.703125 64 64v144c0 35.296875-28.703125 64-64 64zm0 0" fill="#40a2e7"/><g fill="#fff"><path d="m32 352h32v32h-32zm0 0"/><path d="m256 352h32v32h-32zm0 0"/><path d="m400 64h-48v144h32v-48h16c26.464844 0 48-21.535156 48-48s-21.535156-48-48-48zm0 64h-16v-32h16c8.832031 0 16 7.183594 16 16s-7.167969 16-16 16zm0 0"/></g><path d="m0 416h320v32h-320zm0 0" fill="#f45747"/><path d="m286.398438 304h-252.796876l5.597657-32h241.601562zm0 0" fill="#26badd"/></svg>