<?xml version="1.0" encoding="utf-8"?>
<!-- Generator: Adobe Illustrator 20.1.0, SVG Export Plug-In . SVG Version: 6.00 Build 0)  -->
<svg version="1.1" id="Layer_1" xmlns="http://www.w3.org/2000/svg" xmlns:xlink="http://www.w3.org/1999/xlink" x="0px" y="0px"
	 viewBox="0 0 460 298.6" style="enable-background:new 0 0 460 298.6;" xml:space="preserve">
<style type="text/css">
	.st0{fill:#FDC88E;}
	.st1{fill:#F5B97A;}
	.st2{fill:#FFD7A3;}
	.st3{fill:#FF6473;}
	.st4{fill:#623F33;}
	.st5{fill:#E4B07B;}
	.st6{fill:#F05467;}
	.st7{fill:#BD445A;}
	.st8{fill:#9D6E48;}
	.st9{fill:#8D5F3D;}
	.st10{fill:#72B7D3;}
	.st11{fill:#FEE1BD;}
	.st12{fill:#FDD6A3;}
	.st13{fill:#439FC4;}
	.st14{fill:#FBC58E;}
	.st15{fill:#BE475C;}
	.st16{fill:#FE8792;}
	.st17{fill:#FDFBFB;}
	.st18{fill:#FCD4AB;}
	.st19{fill:#FCD5AB;}
	.st20{fill:#B83B56;}
	.st21{fill:#D48F60;}
	.st22{fill:#C57E52;}
	.st23{fill:#43A0C5;}
	.st24{fill:#FFE1B2;}
	.st25{fill:#57B9DD;}
	.st26{fill:#CA8357;}
	.st27{fill:#F2F0BC;}
	.st28{fill:#59D3C6;}
</style>
<title>MAIN_22</title>
<path class="st0" d="M219.5,111.3l-0.2-1.5c-0.1-0.6-0.6-1.1-1.2-1H218l-1.6-13.2c-0.4-2.9-2.3-5.3-5.1-6.2l-9.2-3.1
	c-1.2-0.4-2.6-0.2-3.6,0.7l-2.7-0.9c-1.5-0.5-2.6-1.9-2.6-3.6v-6l8.1-3.4c4.2-1.7,6.9-5.8,6.9-10.4v-1.9c3.1,0,5.6-2.5,5.6-5.6
	c0-1.3-0.4-2.5-1.2-3.5c3.7-9.7,4.1-20.4,1.2-30.3c-0.6-0.5-1.2-0.9-1.9-1.2c-0.3-4.3-1.8-6.3-1.8-6.3l-6.9,2.3
	c-8-2.8-16.5-4.2-25.1-4.2c-1.1,1-2.4,1.6-3.8,1.9c-4.3-0.9-8.7-1.5-13.1-1.9l-3.8,9.4c0,0-9.4-0.1-9.4,11.3
	c0,4.2,2.3,14.5,3.3,18.8c-2.1,2.3-1.9,5.9,0.4,7.9c1,0.9,2.4,1.4,3.8,1.4v1.9c0,4.5,2.7,8.6,6.9,10.4l8.1,3.4v6
	c0,1.6-1,3.1-2.6,3.6l-2.7,0.9c-1-0.8-2.4-1.1-3.6-0.7l-9.2,3.1c-2.7,0.9-4.7,3.3-5.1,6.2l-1.6,13.2h-0.1c-0.6-0.1-1.2,0.4-1.2,1
	c0,0,0,0,0,0l0,0l-0.2,1.5c-0.1,0.6,0.4,1.1,1,1.2c0,0,0,0,0,0l0,0l2.8,0.3v4.4c0,2.1,1.7,3.7,3.7,3.7h60.1c2.1,0,3.8-1.7,3.8-3.8
	v-4.4l2.8-0.3C219.2,112.5,219.6,112,219.5,111.3C219.6,111.4,219.6,111.4,219.5,111.3L219.5,111.3z"/>
<path class="st1" d="M193.3,76.4h-22.5v6.2c0,1.3-0.7,2.5-1.9,3.2C184.6,88.6,193.3,76.4,193.3,76.4z"/>
<path class="st2" d="M208.3,49.7v-3.8c0-5.2-4.2-9.4-9.4-9.4l0,0h-33.8c-5.2,0-9.4,4.2-9.4,9.4v0l0,0v3.8c-3.1,0-5.6,2.5-5.6,5.6
	s2.5,5.6,5.6,5.6v1.9c0,4.5,2.7,8.6,6.9,10.4l12.1,5.1c2.3,1,4.7,1.4,7.2,1.4l0,0c2.5,0,4.9-0.5,7.2-1.4l12.1-5.1
	c4.2-1.7,6.9-5.8,6.9-10.4v-1.9c3.1,0,5.6-2.5,5.6-5.6C213.9,52.2,211.4,49.7,208.3,49.7L208.3,49.7z"/>
<path class="st3" d="M202.7,121v-9.4h15.7l-2-15.9c-0.4-2.9-2.3-5.3-5.1-6.2l-9.2-3.1c-1.6-0.6-3.4,0-4.3,1.5
	c-5.5,8.7-17.1,11.3-25.9,5.8c-2.3-1.5-4.3-3.5-5.8-5.8c-0.9-1.4-2.7-2-4.3-1.5l-9.2,3.1c-2.7,0.9-4.7,3.3-5.1,6.2l-1.8,14.3h15.5
	v11H202.7z"/>
<path class="st4" d="M168.9,57.2L168.9,57.2c-1,0-1.9-0.8-1.9-1.9c0,0,0,0,0,0l0,0v-1.9c0-1,0.8-1.9,1.9-1.9l0,0l0,0
	c1,0,1.9,0.8,1.9,1.9c0,0,0,0,0,0l0,0v1.9C170.8,56.4,169.9,57.2,168.9,57.2z"/>
<path class="st4" d="M195.2,57.2L195.2,57.2c-1,0-1.9-0.8-1.9-1.9c0,0,0,0,0,0l0,0v-1.9c0-1,0.8-1.9,1.9-1.9l0,0l0,0
	c1,0,1.8,0.9,1.8,1.9v1.9C197,56.3,196.2,57.2,195.2,57.2z"/>
<path class="st5" d="M182,70.4c-3,0.1-6-0.7-8.6-2.2c-0.9-0.6-1.1-1.7-0.5-2.6c0.5-0.8,1.6-1.1,2.4-0.6l0.2,0.2
	c4,2.1,8.9,2.1,12.9,0c0.8-0.6,2-0.5,2.7,0.3s0.5,2-0.3,2.7l-0.2,0.2C188,69.7,185,70.5,182,70.4z"/>
<path class="st0" d="M165.6,69.3c-1.5-1.6-2.3-3.8-2.3-6V46.7c5.2-2.8,20.3-10.2,35.7-10.2h-33.8c-0.6,0-1.3,0.1-1.9,0.2l0,0
	c-4.4,0.9-7.5,4.7-7.5,9.2v3.8c-3.1,0-5.6,2.5-5.6,5.6c0,3.1,2.5,5.6,5.6,5.6c0,0,0,0,0,0v1.9c0,4.5,2.7,8.6,6.9,10.4l12.1,5.1
	c0.6,0.2,1.2,0.5,1.8,0.6C172.7,76.1,169,72.9,165.6,69.3z"/>
<path class="st6" d="M161.4,113v-4.2c0-1.8-0.6-3.6-1.8-4.9l-10.3-11.9c-0.9,1.1-1.4,2.4-1.6,3.7l-2,15.7
	C148.7,111.5,156.6,112.5,161.4,113z"/>
<path class="st7" d="M161.4,110.6l-15.5-1.7c-0.6-0.1-1.2,0.4-1.2,1c0,0,0,0,0,0l0,0l-0.2,1.5c-0.1,0.6,0.4,1.1,1,1.2c0,0,0,0,0,0
	l0,0l15.9,1.8L161.4,110.6z"/>
<path class="st6" d="M202.7,113v-4.2c0-1.8,0.6-3.6,1.8-4.9l10.3-11.9c0.9,1.1,1.4,2.4,1.6,3.7l2,15.7
	C215.4,111.5,207.4,112.5,202.7,113z"/>
<path class="st7" d="M202.7,110.6l15.5-1.7c0.6-0.1,1.2,0.4,1.2,1c0,0,0,0,0,0l0,0l0.2,1.5c0.1,0.6-0.4,1.1-1,1.2c0,0,0,0,0,0l0,0
	l-15.9,1.8L202.7,110.6z"/>
<path class="st8" d="M213.9,21.5c-0.6-0.5-1.3-0.9-1.9-1.2c-0.3-4.3-1.8-6.3-1.8-6.3l-6.9,2.3c-8-2.8-16.5-4.2-25.1-4.2
	c-1.1,1-2.4,1.6-3.8,1.9c-4.3-0.9-8.7-1.5-13.1-1.9l-3.8,9.4c0,0-9.4-0.1-9.4,11.3c0,4.2,2.3,14.6,3.3,18.8c1.1-1.2,2.6-1.9,4.2-1.9
	v-3.7c0-5.1,4.1-9.3,9.2-9.4c-0.8,1.8-1.4,3.7-1.7,5.6c5.5-3.7,12.1-5.7,18.7-5.6h16.9c5.2,0,9.4,4.2,9.4,9.4v0l0,0v3.8
	c1.7,0,3.4,0.8,4.4,2.2C216.4,42.1,216.8,31.5,213.9,21.5z"/>
<path class="st9" d="M210.2,14l-6.9,2.3c-8-2.8-16.5-4.2-25.1-4.2c-1.1,1-2.4,1.6-3.8,1.9c-4.3-0.9-8.7-1.5-13.1-1.9l-3.8,9.4
	c0,0-9.4-0.1-9.4,11.3c0,4.2,2.3,14.6,3.3,18.8c1.1-1.2,2.6-1.9,4.2-1.9v-3.7c0-4.9,3.7-8.9,8.6-9.3c-0.6,1.8-1,3.7-1,5.5
	c7.4-9.4,17.9-12.8,26.3-15s9.4-5.6,9.4-5.6S207.1,21.1,210.2,14z"/>
<path class="st10" d="M275.2,105.7h-44l-0.2-0.9c0.4-0.5,0.9-0.9,1.4-1.1c13.6-1,27.2-0.6,40.7-0.3c0.6,0.1,1.2,0.4,1.7,0.7
	C275.3,104.4,275.5,105.1,275.2,105.7C275.2,105.7,275.2,105.7,275.2,105.7L275.2,105.7L275.2,105.7z"/>
<path class="st11" d="M275.2,105.7l0.4-1c2.5-1.9,6-1.9,8.6,0c0,0.3,0,0.7,0,1H275.2z"/>
<path class="st11" d="M230.7,104.7l0.4,1h-9c0-0.3,0-0.7,0-1C224.7,102.7,228.2,102.7,230.7,104.7z"/>
<path class="st12" d="M275.2,92.7l8.7-13.2c2.5,6.8,3,13.9,3.3,21c0.1,2.1-1.2,3.4-3,4.2l-8.6-0.1h-0.2l-0.2,0.1
	C272.8,101,272.9,96.3,275.2,92.7z"/>
<path class="st13" d="M275.2,92.7l-0.1,12h-43.9c0-4,0-8-0.1-12H275.2z"/>
<path class="st14" d="M187.2,122.7h-1c-0.4-0.4-0.8-0.9-1.1-1.4c-1-1.9-0.8-4.2,0.4-5.9c2.5-2.4,5.6-2.7,8.8-2.3
	c1.9,0,3.8-1.3,5.8-0.1c0.5,0.3,0.9,0.8,1.2,1.3c1.1,3.5,1,6.5-3.1,7.9C194.5,122.5,190.8,121.6,187.2,122.7z"/>
<path class="st14" d="M143.2,122.7h-1c-3.6-1.1-7.2-0.2-10.8-0.5c-4.2-1.1-4.3-4.2-3.4-7.6c0.2-0.5,0.6-1,1.1-1.4
	c0.8-0.5,1.7-0.7,2.5-0.5c4,1.2,8.8-1.1,12.2,2.7c1.3,1.7,1.5,4,0.5,5.9C143.9,121.8,143.6,122.2,143.2,122.7z"/>
<path class="st15" d="M143.1,115.7l-12.1-1.9c0.4-0.5,1-0.7,1.6-0.6H131c-0.6-0.1-1.2,0.1-1.8,0.3c-0.1,0.2-0.1,0.4,0,0.5
	c-1.9,1-3.1,0.3-4-1.4v-2l1.8-1.2c4.7-2.6,12.7-1.7,16.9,1.8C144.5,112.9,144.5,114.4,143.1,115.7z"/>
<path class="st15" d="M195.1,114.3l-8.8,1.4c-1.5-1.3-1.4-2.8-0.7-4.4c4.1-3.5,12.2-4.3,16.9-1.8l1.8,1.2v2c-0.9,1.7-2.2,2.4-4,1.4
	c0.1-0.2,0.1-0.4,0-0.5C198.4,112.9,196.5,113.2,195.1,114.3z"/>
<path class="st16" d="M143.2,122.7l0.1-1.1c1.5-1.8,3.6-2,5.9-2.1c10.4-0.1,20.8-0.1,31.2,0c2.2,0,4.3,0.2,5.9,2.1l0.1,1.1H143.2z"
	/>
<path class="st17" d="M200.2,114.1l4-1.4c-0.1,1.3-0.1,2.7,0,4c1,5.2-0.9,7.1-6,6c-0.7-0.3-0.7-0.6-0.1-1
	C200.8,119.7,199.9,116.7,200.2,114.1z"/>
<path class="st17" d="M125.2,112.7l4,1.4c0.3,2.6-0.6,5.6,2.1,7.6c0.6,0.4,0.5,0.7-0.1,1c-5.1,1.1-7.1-0.9-6-6
	C125.3,115.3,125.3,114,125.2,112.7z"/>
<path class="st18" d="M131.2,122.7l0.1-1c3.6,0.5,7.4-1,10.9,1H131.2z"/>
<path class="st19" d="M198.1,121.7l0.1,1h-11C190.6,120.7,194.4,122.2,198.1,121.7z"/>
<path class="st20" d="M195.1,114.3c-0.2-0.5-1.8-1.3,0-1.5s3.5-0.5,5.1,0.8L195.1,114.3z"/>
<path class="st20" d="M129.2,113.5c1.8-1.2,3.7-1.1,6.6-0.2l-4.8,0.4L129.2,113.5z"/>
<path class="st2" d="M319.5,16.7c0-9.6-5.5-16.7-14.9-16.7c-4,0-7.9,1.4-11.1,3.8c-0.8-0.6-2-0.5-2.6,0.3c-0.3,0.4-0.5,0.9-0.4,1.4
	C285.9,1.8,281,0,278.6,0c-6,0-9.3,1.9-9.3,1.9S266.1,0,260.1,0c-2.4,0-7.3,1.8-11.9,5.6c0.1-1-0.6-2-1.6-2.1
	c-0.5-0.1-1,0.1-1.4,0.4C241.9,1.4,238,0,234,0c-9.4,0-14.9,7.1-14.9,16.7s10.8,35.9,5.6,52c0,0,12.2-4.2,17.6-20.5
	c0.3,0.1,0.7,0.1,1,0.1v1.9c0,4.5,2.7,8.6,6.9,10.3l8,3.3v6c0,1.6-1,3-2.5,3.5l-7.5,2.8l-0.1-0.2c-0.5-0.9-1.7-1.1-2.5-0.6l-6.1,3.7
	c-0.8,0.5-1.1,1.5-0.7,2.4c-0.9,1.2-1.4,2.7-1.6,4.2l-2.1,16c-0.4,3.1,1.7,5.9,4.8,6.3c0.2,0,0.5,0,0.7,0h57.9
	c3.1,0,5.6-2.5,5.6-5.6c0-0.2,0-0.5,0-0.7l-2.1-16c-0.2-1.5-0.8-2.9-1.7-4.2c0.4-0.9,0.1-1.9-0.7-2.4l-6.1-3.7
	c-0.9-0.5-2-0.2-2.5,0.6l-0.1,0.2l-7.5-2.8c-1.5-0.5-2.5-1.9-2.5-3.5v-6l8-3.3c4.2-1.7,6.9-5.8,6.9-10.3v-1.9c0.3,0,0.7,0,1-0.1
	c5.5,16.4,17.7,20.5,17.7,20.5C308.7,52.7,319.5,26.5,319.5,16.7z"/>
<path class="st0" d="M280.5,63.6h-22.3v6.2l0,0v0.7l0,0c-0.2,1-0.9,1.9-1.8,2.5C271.9,75.7,280.5,63.6,280.5,63.6z"/>
<path class="st21" d="M289.8,7.4c0,0,5.5-7.4,14.9-7.4s14.9,7.1,14.9,16.7s-10.8,35.9-5.6,52c0,0-13.9-4.8-18.6-24.2
	c-4.3-17.8,1.9-29.7,1.9-29.7L289.8,7.4z"/>
<path class="st22" d="M296.3,9.3c0,0,5.9-4.4,10.2-1.9c9.5,5.6,1.7,21.1,0,29.7c-2.3,11.6-1.4,22.8,7.4,31.6c0,0-13.9-4.8-18.6-24.2
	c-4.3-17.8,0.9-29.7,0.9-29.7L296.3,9.3z"/>
<path class="st23" d="M298.2,11.8L298.2,11.8c0.8-0.7,0.8-1.9,0.1-2.6l-4.5-5.1c-0.7-0.8-1.9-0.8-2.6-0.2l0,0
	c-0.8,0.7-0.9,1.8-0.2,2.6l0,0l4.5,5.1C296.2,12.4,297.4,12.5,298.2,11.8L298.2,11.8z"/>
<path class="st21" d="M248.9,7.4c0,0-5.4-7.4-14.9-7.4s-14.9,7.1-14.9,16.7s10.8,35.9,5.6,52c0,0,13.9-4.8,18.6-24.2
	c4.3-17.8-1.9-29.7-1.9-29.7L248.9,7.4z"/>
<path class="st22" d="M242.6,9.3c0,0-6.2-4.4-10.4-1.9c-9.5,5.6-1.7,21.1,0,29.7c2.3,11.6,1.4,22.8-7.4,31.6c0,0,13.9-4.8,18.6-24.2
	c4.3-17.8-0.7-29.7-0.7-29.7L242.6,9.3z"/>
<path class="st23" d="M240.5,11.8L240.5,11.8c-0.8-0.7-0.8-1.9-0.1-2.6l4.5-5.1c0.7-0.7,1.9-0.8,2.6-0.1l0,0
	c0.8,0.7,0.8,1.9,0.1,2.6l-4.5,5.1C242.4,12.4,241.3,12.5,240.5,11.8z"/>
<path class="st24" d="M295.4,37.2v-3.7c0-5.1-4.2-13-9.3-13h-33.5c-5.1,0-9.3,7.9-9.3,13v3.7c-3.1-0.1-5.7,2.3-5.8,5.4
	c-0.1,3.1,2.3,5.6,5.3,5.8h0.5v1.9c0,4.5,2.7,8.6,6.9,10.3l12,5c2.3,0.9,4.7,1.4,7.1,1.4l0,0c2.5,0,4.9-0.5,7.1-1.4l12-5
	c4.2-1.7,6.9-5.8,6.9-10.3v-1.9c3.1,0.1,5.7-2.2,5.8-5.3c0.1-3.1-2.2-5.7-5.3-5.8c0,0,0,0,0,0H295.4L295.4,37.2z"/>
<path class="st4" d="M256.3,44.6L256.3,44.6c-1,0-1.9-0.8-1.9-1.9l0,0l0,0v-1.8c0-1,0.8-1.9,1.8-1.9c0,0,0,0,0,0l0,0
	c1,0,1.9,0.8,1.9,1.9l0,0v1.9C258.2,43.7,257.4,44.6,256.3,44.6C256.3,44.6,256.3,44.6,256.3,44.6L256.3,44.6z"/>
<path class="st4" d="M282.4,44.6L282.4,44.6c-1,0-1.9-0.8-1.9-1.9v-1.8c0-1,0.8-1.9,1.8-1.9c0,0,0,0,0,0l0,0c1,0,1.9,0.8,1.9,1.9
	v1.9C284.2,43.7,283.4,44.6,282.4,44.6C282.4,44.6,282.4,44.6,282.4,44.6L282.4,44.6z"/>
<path class="st5" d="M269.4,57.7c-3,0.1-5.9-0.7-8.5-2.2c-0.9-0.6-1.1-1.8-0.5-2.6c0.6-0.9,1.8-1.1,2.6-0.5c4,2.1,8.8,2.1,12.8,0
	c0.9-0.5,2-0.2,2.6,0.6c0.5,0.8,0.3,1.9-0.5,2.4C275.3,57,272.3,57.8,269.4,57.7z"/>
<path class="st2" d="M243.3,37.2c-3.1-0.1-5.7,2.3-5.8,5.4c-0.1,3.1,2.3,5.6,5.3,5.8h0.5v1.9c0,4.5,2.7,8.6,6.9,10.3l12,5
	c0.6,0.2,1.2,0.5,1.8,0.6c-3.9-2.8-7.6-6-10.9-9.5c-1.5-1.6-2.3-3.8-2.3-6V40.3c5.3-1.9,20.2-8,20.4-18c0.1-2-0.1-4-0.4-6
	C268,31.2,245.2,37.2,243.3,37.2z"/>
<path class="st25" d="M290.7,75.9L284,86.6c-1,1.6-2.8,2.6-4.7,2.6h-19.8c-1.9,0-3.7-1-4.7-2.6L248,75.9c-0.5-0.9-1.7-1.1-2.5-0.6
	l-6.1,3.7c-0.9,0.5-1.2,1.7-0.6,2.6l0,0l8.3,13.3h44.6l8.3-13.3c0.5-0.9,0.3-2-0.6-2.5l0,0l-6.1-3.7
	C292.3,74.8,291.2,75.1,290.7,75.9z"/>
<rect x="247.1" y="94.8" class="st23" width="44.6" height="13"/>
<path class="st21" d="M278.6,0c-6,0-9.3,1.9-9.3,1.9S266.1,0,260.1,0s-29,11.6-20.4,38.6c0,0,29.7-5.3,29.7-18.1
	c0,12.9,29.7,18.1,29.7,18.1C307.6,11.6,284.7,0,278.6,0z"/>
<path class="st26" d="M269.4,1.9L269.4,1.9c0,0-3.2-1.9-9.3-1.9s-29,11.6-20.4,38.6c0,0,3.6-0.6,8.3-2
	C242.6,12.4,263.6,1.9,269.4,1.9z"/>
<path class="st27" d="M29.2,188.7v-5c1.9-15.2,11.7-24.9,23.4-33.1c18.3-12.9,39.1-20.4,60.4-26.8c13-3.9,26.5-6.2,39.6-9.6
	c12.1-3.2,23.8-8.4,35.6-13c21.2-8.1,42.5-16.2,63.7-24.6c15.9-6.3,31.4-13.7,48.2-17.3c3.4-0.7,6.9-1.1,10.3-1.7h15
	c13.3,1.2,21,9.8,26.8,20.6c7.8,14.6,11.4,30.3,13.3,46.6c1.4,12.3,1.1,24.5,0.1,36.8c-1.2,14.9,2.4,29.4,6,43.7
	c4.9,19.6,9.9,39.2,11.9,59.4v13c-2.1,12.2-8.1,17.9-20.7,19.9c-2.4,0.4-4.9,0.7-7.3,1.1h-17c-18.9-2-37.8-4.3-56.8-5.8
	c-16.7-1.4-33.4-2.5-50.2-2.2c-36.7,0.8-72.3-5.4-106.9-17.5c-22.9-8-44.4-18.6-63.1-34.3c-12.9-10.8-23.4-23.7-29.5-39.6
	C30.3,195.9,29.9,192.2,29.2,188.7z"/>
<image style="overflow:visible;opacity:0.3;enable-background:new    ;" width="460" height="246" xlink:href="EDDE67E9A0BC2CD7.png"  transform="matrix(1 0 0 1 0 45.5499)">
</image>
<path class="st28" d="M403.2,268.7h-2c-3.5-1.3-5.7-3.9-7.5-7c-1.2-2-2.3-4.1-3.2-6.2c-6.5-16.8-19.7-25.3-36.4-29.6
	c-10.6-2.8-21.5-4.7-32.4-5.6c-16.9-1.4-33.9-2.7-50.8-2.1c-24.6,0.8-49.2,2.4-73.8,1.7c-32.9-0.9-65.9-2.3-98.1-10
	c-18.8-4.5-36.5-11.3-51.8-23.7c-7.8-6.4-17.5-7.6-27.3-8.1c-3.6-0.2-7.4,1-10.6-1.6c-1-3.1,0.9-5,3-6.7
	c10.3-8.5,20.9-16.4,31.4-24.6c6.6-5.1,6.7-5.3,4.4-13.4c-6.8-23.2-13-46.5-19.7-69.7c-0.7-2.5-2.9-5.9,0.4-7.7s4.8,1.7,6.7,3.7
	C61,85.4,91.7,103,129.3,107.5c18.8,2.3,37.7,4,56.6,5.1c20.4,1.2,40.8,2,61.2,3c29.2,1.4,58.5,2.2,87.5,6
	c15,2.1,29.7,6.2,43.7,12.2c19.5,8.2,37.9,18.9,54.7,31.8c2.1,1.4,3.6,3.5,4.4,5.8c0.7,3.9-2.1,4.7-4.8,5.8
	c-14.3,5.4-28.8,10.3-43.1,15.7c-6,2.3-6,2.5-3.8,8.7c6.5,18,13.2,35.9,18.2,54.4C405,260.2,407.2,264.7,403.2,268.7z"/>
<image style="overflow:visible;opacity:0.3;enable-background:new    ;" width="52" height="70" xlink:href="EDDE67E9A0BC2CD5.png"  transform="matrix(1 0 0 1 78 130.55)">
</image>
<path class="st27" d="M107,170.8c-0.1,2-1,3.9-2.6,5.2c-1.8,1.3-4,1.9-6.1,1.7c-0.7-0.1-1.4-0.2-2-0.5l-2.1-0.7l-2.1-0.6
	c-0.7-0.2-1.3-0.6-1.8-1.1c-0.9-1-1.4-2.3-1.7-3.6c-0.2-1.2-0.6-2.4-1.1-3.6c-0.3-0.4-0.5-0.8-0.7-1.3c-0.1-0.5,0.1-0.9,0.3-1.3
	c0.2-0.4,0.6-0.6,1-0.7c0.3,0,0.7,0,1,0c1.3,0.1,2.5,0.3,3.7,0.7c0.9,0.1,1.7,0.4,2.4,0.9c0.3,1,0.4,2.1,0.4,3.2
	c0.1,1.8,0.4,2.8,0.9,3c0.1,0.1,0.3,0.1,0.4,0.1c0.6,0,1.1-0.4,1.5-1.3c0.5-1,0.8-2,0.8-3.1c0.2-2.5-0.5-4.3-2-5.3
	c-2.7-1.6-5.2-3.6-7.2-6.1c-1.5-2-2.1-4.5-1.7-7c0.4-2.4,1.4-4.6,2.9-6.4c1.6-2.1,3.3-3.3,4.9-3.6c0.7-0.1,2.7,0.7,6,2.4
	c0.8,0.4,1.6,0.8,2.5,1.2c0.8,0.4,1.5,1,2,1.7c0.7,1.1,1,2.9,0.8,5.4c0,0.5-0.1,1.2-0.2,2.1c-0.1,0.8-0.2,1.3-0.2,1.7
	c0,0.3,0.1,0.7,0.2,1c0.1,0.3,0.2,0.7,0.1,1c-0.2,1.3-0.8,1.9-1.8,2c-1.1-0.1-2.2-0.4-3.2-0.9c-1.2-0.4-2.3-1.1-3.2-2.1
	c-0.1-0.3-0.1-0.6,0-0.9c0-0.4,0.1-1.4,0.4-3s0.4-2.7,0.4-3.4c0.1-1.3,0-1.9-0.3-1.9c-1.1,0.1-2,0.8-2.4,1.8
	c-0.7,1.3-1.1,2.7-1.2,4.2c-0.2,2.6,0.4,4.6,1.9,5.8l5,3.8c1.3,0.9,2.4,2.1,3.2,3.5C107.1,166.7,107.3,168.8,107,170.8z"/>
<image style="overflow:visible;opacity:0.3;enable-background:new    ;" width="54" height="70" xlink:href="EDDE67E9A0BC2CDB.png"  transform="matrix(1 0 0 1 102 132.55)">
</image>
<path class="st27" d="M129.7,145.2c2.7,1.7,3.9,4.4,3.6,8c-0.2,2.6-1.5,5.9-3.9,9.8c-2.7,4.3-5.2,6.4-7.6,6.2
	c-0.6-0.1-1.1-0.4-1.5-0.8l-1.6-1.5l-0.6,7.5c0,0.4,0,0.9,0.1,1.3c0.1,0.7,0.2,1.2,0.3,1.5c0,0.5-0.2,1-0.4,1.4
	c-0.2,0.6-0.7,0.9-1.3,1c-1.2-0.2-2.3-0.7-3.3-1.4c-1.3-0.6-2.4-1.4-3.2-2.5c-0.2-0.6-0.2-1.3,0.1-1.8c0.2-0.4,0.4-0.9,0.4-1.4
	l2.2-27.1c0-0.3-0.1-0.7-0.2-1c-0.1-0.3-0.2-0.7-0.2-1c0.3-1.4,0.9-2.1,1.8-2c0.6,0.2,1.2,0.4,1.7,0.6c0.8,0.4,1.6,0.6,2.4,0.8
	c1.2,0.1,2.3-0.1,3.4-0.4c1-0.3,2-0.5,3-0.5c0.3,0,0.7,0.1,1,0.2c0.8,0.3,1.5,0.8,2,1.5C128.4,144.2,129,144.7,129.7,145.2z
	 M125.8,148.3c-1,0-2,0.3-2.9,0.9c-1.1,0.5-2.2,1.3-3,2.2l-0.8,10.6c1.6-0.4,3.3-2,4.9-5c1.3-2.1,2.2-4.5,2.5-7
	C126.6,148.9,126.4,148.4,125.8,148.3L125.8,148.3z"/>
<image style="overflow:visible;opacity:0.3;enable-background:new    ;" width="52" height="70" xlink:href="EDDE67E9A0BC2CDD.png"  transform="matrix(1 0 0 1 126 134.55)">
</image>
<path class="st27" d="M154.1,175.7c-0.2,0.6-0.5,1.1-0.9,1.5c-0.3,0.4-0.7,0.7-1.2,0.9c-0.2,0-0.3-0.1-0.5-0.2
	c-0.2-0.1-0.4-0.2-0.6-0.2c-0.1,0-0.1,0-0.2,0c-1,0.2-1.9,0.5-2.8,0.8c-2.2,0.8-4.3,1.9-6.3,3.3l-4.6-2.4c-1.8-0.9-2.6-1.6-2.6-2
	l2.6-33c0-0.2,0.4-0.5,1.1-0.8c0.5-0.3,1-0.4,1.6-0.4c0.7,0.2,1.4,0.5,2.1,0.9c0.8,0.4,1.6,0.7,2.5,0.8c1.2,0,2.4-0.3,3.5-0.9
	c1.3-0.7,2.2-0.9,2.5-0.8c1.1,0.7,2.2,1.5,3,2.6c1.3,1.4,2,2.4,2,3c0,0.3-0.3,0.7-0.9,1.3c-0.4,0.5-0.9,0.8-1.6,0.9
	c-0.2,0-0.5-0.1-0.7-0.2c-0.1-0.1-0.2-0.1-0.3-0.1c-1,0.1-2,0.3-3,0.6c-1.8,0.4-3.5,1.1-5,2.2l-0.6,7.1c1.3-0.5,2.7-1,4.1-1.3
	c0.5,0,1.4,0.7,2.8,2.2c1.4,1.5,2.1,2.5,2,3c-0.1,0.4-0.3,0.8-0.7,1.1c-0.3,0.3-0.8,0.6-1.2,0.7h-1.5c-2.1,0.5-4.2,1.3-6.1,2.3
	l-0.4,4.6c0.9-0.5,2.2-1,3.7-1.6c0.9-0.4,1.9-0.7,2.9-0.9c0.4,0,1.4,0.7,2.9,2.2S154.2,175.4,154.1,175.7z"/>
<image style="overflow:visible;opacity:0.3;enable-background:new    ;" width="59" height="69" xlink:href="EDDE67E9A0BC2CDF.png"  transform="matrix(1 0 0 1 147 137.55)">
</image>
<path class="st27" d="M183.7,181.2c-0.1,0.3-0.2,0.9-0.3,1.9c0,0.4-0.2,0.8-0.4,1.2c-0.2,0.1-0.5,0.1-0.8,0.1
	c-1.2-0.1-2.4-0.5-3.5-1c-1.2-0.4-2.2-1-3-1.9c-0.3-0.9-0.5-1.8-0.5-2.7c-0.1-1.7-0.4-3.4-0.7-5c-1.7,0.1-3.4,0.4-5,0.8
	c-1.5,0.3-2.9,0.7-4.3,1.3c-0.5,1.2-1.2,2.7-2.1,4.5c-0.1,0.4-0.2,0.8-0.4,1.1c-0.2,0.4-0.5,0.7-0.8,0.8c-0.1,0.1-0.3,0.1-0.4,0.1
	c-1.2-0.3-2.4-0.7-3.4-1.4c-1.6-0.9-2.4-1.4-2.4-1.6c-0.1-0.4,0.3-1.4,1.1-3c1.1-2.3,1.8-3.7,2-4.2c-0.5-0.5-0.8-1.2-0.8-1.9
	c0-0.2,0-0.3,0.1-0.5c0.1-0.3,1-0.9,2.8-1.7l7.2-18.9c0.2-0.6,0.2-1.3,0.2-1.9c0-0.8,0.1-1.3,0.4-1.5c0.3-0.2,0.7-0.2,1.1-0.1
	c2,0.3,3.9,0.8,5.8,1.5c2.5,0.9,4,1.7,4.4,2.2c0,4.9,0.3,9.9,0.8,14.8C181.4,172.3,182.4,178,183.7,181.2z M173.3,166.9
	c-0.2-1.9-0.4-3.1-0.4-3.7c-0.2-2-0.2-4.1-0.2-6.1c-0.7,1.4-1.5,3.3-2.5,5.8c-0.7,1.6-1.3,3.2-1.8,4.9
	C170,167.4,171.7,167.1,173.3,166.9z"/>
<image style="overflow:visible;opacity:0.3;enable-background:new    ;" width="56" height="70" xlink:href="EDDE67E9A0BC2CDC.png"  transform="matrix(1 0 0 1 179 138.55)">
</image>
<path class="st27" d="M210.7,179.1c0,0.7-0.6,2.1-1.8,4c-1.2,1.9-2.2,2.9-3,2.8c-0.9-0.2-2.6-2.1-5.1-5.7c-1.6-2.4-3.4-4.7-5.3-6.9
	l-0.6,8.1c0,0.3,0.1,0.6,0.2,0.9c0.1,0.3,0.2,0.7,0.2,1c0.1,1.2-0.3,1.9-0.9,2.2c-0.5,0.2-1,0.2-1.5,0.1c-1.3-0.1-2.5-0.4-3.7-1
	c-1.3-0.7-2-1.4-1.9-2.1l2.6-32.1c0.1-0.7,0.3-1.3,0.7-1.8c0.3-0.5,0.8-1,1.4-1.2c0.1,0,0.3,0,0.4,0c1.2,0.2,2.4,0.6,3.5,1.2
	c1.5,0.8,2.3,1.4,2.4,1.8c-0.1,1.1-0.4,2.1-0.7,3.2c-0.5,1.6-0.8,3.3-1,5v1l8.5-11c0.4-0.6,1-0.9,1.7-0.8c1.2,0.3,2.2,0.9,3.1,1.7
	c1.5,1.2,2.3,2.2,2.2,3.2c0,0.3-1.3,1.8-3.9,4.6c-2.8,2.9-5.4,6.1-7.7,9.4l8,10.9c0.4,0.4,0.8,0.6,1.4,0.7
	C210.4,178.4,210.7,178.7,210.7,179.1z"/>
<path class="st28" d="M274.9,97.3l-4.1-19.1c-0.1-0.4,0.1-0.8,0.4-1c0.8-0.6,1.8-0.8,2.7-0.6c0.4,0.1,0.7,0.4,0.8,0.8l1.7,8l4.5-10
	c0.2-0.4,0.5-0.7,0.9-0.8c0.6-0.1,1.1,0,1.6,0.3c0.5,0.2,0.9,0.7,1,1.2c0.1,0.3,0,0.5-0.1,0.8l-3.8,7.7l8.5,8.4
	c0.2,0.2,0.3,0.4,0.4,0.6c0.1,0.5-0.1,1.1-0.4,1.5c-0.4,0.5-0.9,0.8-1.4,0.9c-0.5,0.1-1.1,0-1.5-0.4l-7.3-7.2l-1.1,2.3l1.2,5.8
	c0.1,0.4-0.1,0.8-0.4,1c-0.7,0.6-1.7,0.8-2.7,0.6C275.3,98,275,97.7,274.9,97.3z"/>
<path class="st28" d="M291.1,93.8L287,74.8c-0.1-0.4,0.1-0.8,0.4-1c0.8-0.6,1.8-0.8,2.7-0.6c0.4,0.1,0.7,0.4,0.8,0.8l4.1,19
	c0.1,0.4-0.1,0.8-0.4,1c-0.7,0.6-1.7,0.8-2.7,0.6C291.5,94.5,291.2,94.2,291.1,93.8z"/>
<path class="st28" d="M298.4,92.3l-4.1-19.1c-0.1-0.3,0-0.7,0.3-0.9c0.3-0.3,0.7-0.5,1.1-0.6l5.2-1.1c1.8-0.5,3.7-0.3,5.4,0.5
	c1.5,0.8,2.5,2.4,3,4.7l1.7,8c0.5,2.3,0.2,4.2-0.8,5.5c-1.2,1.4-2.8,2.4-4.7,2.7l-5.2,1.1c-0.4,0.1-0.9,0.1-1.3-0.1
	C298.7,92.9,298.5,92.6,298.4,92.3z M301.8,89.3l3-0.7c2.1-0.4,2.8-1.8,2.4-4l-1.7-8c-0.5-2.2-1.8-3.2-3.8-2.7l-3,0.7L301.8,89.3z"
	/>
<path class="st28" d="M313.9,86.6c-0.1-0.5,0-1,0.2-1.5c0.2-0.5,0.5-0.8,1-0.9c0.3,0,0.7,0,0.9,0.2c0.4,0.2,0.8,0.4,1.1,0.6
	c0.5,0.3,1,0.4,1.5,0.5c0.7,0.1,1.3,0.1,2,0c0.8-0.1,1.6-0.5,2.2-1.2c0.5-0.6,0.7-1.4,0.5-2.1c-0.1-0.6-0.4-1.1-0.9-1.5
	c-0.5-0.4-1-0.7-1.6-0.8c-0.6-0.2-1.3-0.3-2-0.5c-0.7-0.1-1.5-0.3-2.2-0.5c-0.7-0.2-1.4-0.5-2.1-0.8c-0.7-0.3-1.3-0.9-1.7-1.5
	c-1.1-1.5-1.4-3.5-1-5.3c0.2-0.8,0.7-1.6,1.3-2.2c0.6-0.6,1.3-1.1,2-1.5c0.8-0.4,1.6-0.7,2.5-0.9c0.5-0.1,1.1-0.2,1.6-0.2
	c0.6,0,1.3,0,1.9,0c0.6,0,1.2,0.1,1.7,0.4c0.4,0.2,0.8,0.6,0.9,1.1c0.1,0.5,0,1-0.1,1.4c-0.1,0.5-0.5,0.8-1,0.9
	c-0.5,0-1.1-0.1-1.6-0.2c-0.9-0.2-1.8-0.2-2.7,0c-0.9,0.1-1.7,0.5-2.3,1.1c-0.5,0.5-0.7,1.2-0.5,1.8c0.1,0.6,0.5,1.1,1,1.3
	c0.6,0.3,1.3,0.6,2,0.7c0.8,0.1,1.6,0.3,2.5,0.5c0.9,0.2,1.7,0.5,2.5,0.8c0.9,0.4,1.6,0.9,2.2,1.7c0.7,0.9,1.2,1.9,1.4,3
	c0.5,1.7,0.1,3.6-0.9,5.1c-1.2,1.4-2.9,2.4-4.7,2.7c-1.6,0.4-3.4,0.4-5-0.1C314.9,88.2,314.1,87.5,313.9,86.6z"/>
<path class="st28" d="M109.8,259.7l1.3-19.4c0-0.4,0.2-0.7,0.6-0.9c0.4-0.2,0.8-0.3,1.2-0.2l10.7,0.7c0.4,0,0.7,0.2,0.9,0.6
	c0.2,0.4,0.3,0.8,0.2,1.2c0,0.4-0.2,0.9-0.4,1.2c-0.2,0.3-0.6,0.5-0.9,0.4l-8.5-0.6l-0.4,6l4.6,0.3c0.4,0,0.7,0.2,0.9,0.5
	c0.2,0.3,0.3,0.7,0.2,1.1c0,0.4-0.2,0.7-0.4,1c-0.2,0.3-0.6,0.4-0.9,0.4l-4.6-0.3l-0.4,6l8.5,0.6c0.4,0,0.7,0.2,0.9,0.6
	c0.2,0.4,0.3,0.8,0.2,1.2c0,0.4-0.2,0.8-0.4,1.1c-0.2,0.3-0.6,0.5-0.9,0.5l-10.7-0.7c-0.4,0-0.8-0.2-1.2-0.4
	C109.9,260.5,109.7,260.1,109.8,259.7z"/>
<path class="st28" d="M125.7,260.8l1.3-19.4c0-0.4,0.3-0.7,0.6-0.9c0.4-0.2,0.9-0.3,1.4-0.2c0.6,0,1.1,0.2,1.6,0.5
	c0.5,0.5,0.9,1.1,1.1,1.8l5,11.6l0.8-12c0-0.4,0.3-0.7,0.6-0.9c0.9-0.3,1.9-0.3,2.8,0.2c0.3,0.2,0.5,0.6,0.5,0.9l-1.3,19.4
	c0,0.4-0.3,0.7-0.6,0.9c-0.4,0.2-0.9,0.3-1.4,0.2c-0.9,0-1.8-0.5-2.2-1.4l-5.6-12.5l-0.8,12c0,0.4-0.3,0.7-0.6,0.9
	c-0.4,0.2-0.9,0.3-1.4,0.2c-0.5,0-0.9-0.2-1.3-0.4C125.8,261.6,125.6,261.2,125.7,260.8z"/>
<path class="st28" d="M143.9,256.6l0.6-8.3c0.2-2.4,0.9-4,2.3-5.1c1.5-1.1,3.3-1.5,5.1-1.3c1.9,0,3.6,0.7,5.1,1.9
	c1.2,1.1,1.9,2.7,1.7,4.3c0,0.5-0.2,1.1-0.6,1.4c-0.5,0.3-1,0.4-1.5,0.3c-1.3-0.1-1.9-0.5-1.9-1.4c0-0.8-0.2-1.5-0.6-2.2
	c-0.6-0.7-1.4-1-2.3-1c-2.1-0.1-3.2,0.9-3.4,3.2l-0.6,8.3c-0.2,2.3,0.8,3.5,2.9,3.7c0.9,0.1,1.7-0.1,2.4-0.7c0.6-0.7,1-1.6,1-2.5
	l0.1-1.8l-2.4-0.2c-0.4,0-0.7-0.2-0.9-0.5c-0.2-0.3-0.3-0.7-0.2-1.1c0-0.4,0.2-0.7,0.4-1c0.2-0.3,0.6-0.4,0.9-0.4l5.1,0.4
	c0.3,0,0.7,0.2,0.9,0.4c0.2,0.3,0.3,0.6,0.3,0.9l-0.2,3.6c-0.2,2.4-0.9,4.1-2.3,5.1c-3.2,2-7.3,1.7-10.2-0.7
	C144.2,260.8,143.7,259,143.9,256.6z"/>
<path class="st28" d="M160.6,263.2l1.4-19.4c0-0.4,0.3-0.7,0.6-0.9c0.9-0.3,1.9-0.3,2.8,0.2c0.3,0.2,0.5,0.6,0.5,0.9l-1.2,17.3
	l7.3,0.5c0.4,0,0.7,0.2,0.8,0.6c0.4,0.8,0.3,1.7-0.2,2.4c-0.2,0.3-0.5,0.5-0.9,0.5l-9.5-0.7c-0.4,0-0.8-0.2-1.2-0.4
	C160.8,264,160.6,263.6,160.6,263.2z"/>
<path class="st28" d="M175.1,264.2l1.3-19.4c0-0.4,0.3-0.7,0.6-0.9c0.9-0.3,1.9-0.3,2.8,0.2c0.3,0.2,0.5,0.6,0.5,0.9l-1.3,19.4
	c0,0.4-0.3,0.7-0.6,0.9c-0.4,0.2-0.9,0.3-1.4,0.2c-0.5,0-0.9-0.2-1.4-0.4C175.3,265,175.1,264.6,175.1,264.2z"/>
<path class="st28" d="M181.7,262.5c0.1-0.5,0.3-1,0.6-1.4c0.3-0.4,0.7-0.6,1.2-0.6c0.3,0,0.6,0.2,0.9,0.4c0.3,0.3,0.6,0.6,0.9,0.9
	c0.4,0.4,0.8,0.7,1.3,0.9c0.6,0.3,1.2,0.5,1.9,0.5c0.8,0.1,1.7-0.1,2.4-0.5c0.7-0.4,1.1-1.1,1.1-1.9c0-0.6-0.1-1.2-0.4-1.6
	c-0.3-0.5-0.8-0.9-1.3-1.3c-0.5-0.3-1.1-0.7-1.8-1c-0.7-0.3-1.3-0.7-2-1.1c-0.6-0.4-1.2-0.8-1.8-1.3c-0.6-0.5-1-1.2-1.2-1.9
	c-0.3-0.8-0.4-1.7-0.4-2.6c0-1,0.3-1.9,0.8-2.8c0.4-0.8,1.1-1.4,1.9-1.8c0.7-0.4,1.5-0.7,2.4-0.8c0.9-0.2,1.8-0.2,2.6-0.1
	c0.6,0,1.1,0.1,1.6,0.2c0.6,0.1,1.2,0.3,1.8,0.5c0.6,0.2,1.1,0.5,1.5,0.9c0.4,0.3,0.6,0.8,0.5,1.3c0,0.5-0.2,1-0.5,1.4
	c-0.2,0.4-0.7,0.7-1.2,0.6c-0.5-0.2-1-0.4-1.4-0.7c-0.8-0.4-1.7-0.7-2.6-0.8c-0.9-0.1-1.8,0-2.5,0.4c-0.6,0.3-1,1-1,1.6
	c0,0.6,0.2,1.2,0.6,1.6c0.5,0.5,1.1,0.9,1.7,1.2c0.7,0.3,1.4,0.7,2.2,1.2c0.8,0.4,1.5,0.9,2.2,1.5c0.7,0.6,1.3,1.3,1.6,2.2
	c0.4,1,0.6,2.1,0.5,3.2c0,1.8-0.9,3.5-2.3,4.6c-1.5,1.1-3.4,1.5-5.3,1.3c-1.7-0.1-3.4-0.6-4.8-1.5
	C182.2,264.3,181.6,263.4,181.7,262.5z"/>
<path class="st28" d="M198.2,265.8l1.3-19.4c0-0.4,0.3-0.7,0.6-0.9c0.9-0.3,1.9-0.3,2.8,0.2c0.3,0.2,0.5,0.6,0.5,0.9l-0.5,7.8
	l6.7,0.5l0.5-7.8c0-0.4,0.3-0.7,0.6-0.9c0.9-0.3,1.9-0.3,2.8,0.2c0.3,0.2,0.5,0.6,0.5,0.9l-1.3,19.4c0,0.4-0.3,0.7-0.6,0.9
	c-0.9,0.4-1.9,0.3-2.7-0.2c-0.3-0.2-0.5-0.6-0.5-0.9l0.6-8.6l-6.7-0.5l-0.6,8.6c0,0.4-0.3,0.7-0.6,0.9c-0.4,0.2-0.9,0.3-1.4,0.2
	c-0.5,0-0.9-0.2-1.4-0.4C198.4,266.6,198.2,266.2,198.2,265.8z"/>
<path class="st28" d="M222.3,267.5l1.3-19.4c0-0.4,0.3-0.7,0.6-0.9c0.9-0.3,1.9-0.3,2.8,0.2c0.3,0.2,0.5,0.6,0.5,0.9l-1.2,17.3
	l7.3,0.5c0.4,0,0.7,0.2,0.8,0.6c0.4,0.8,0.3,1.7-0.2,2.4c-0.2,0.3-0.5,0.5-0.9,0.5l-9.5-0.7c-0.4,0-0.8-0.2-1.2-0.4
	C222.5,268.2,222.3,267.9,222.3,267.5z"/>
<path class="st28" d="M234.9,267.9c0-0.1,0-0.2,0.1-0.3l7.1-18.4c0.2-0.4,0.5-0.7,0.9-0.8c0.5-0.2,1.1-0.2,1.6-0.2
	c0.6,0,1.1,0.2,1.6,0.5c0.4,0.2,0.7,0.6,0.8,1l4.5,19.2c0,0.1,0,0.2,0,0.3c-0.1,0.5-0.4,0.9-0.9,1.1c-0.5,0.3-1.1,0.4-1.7,0.4
	c-0.7-0.1-1.2-0.3-1.3-0.9l-0.9-4.1l-6.4-0.4l-1.4,3.9c-0.2,0.5-0.7,0.7-1.5,0.7c-0.7,0-1.3-0.3-1.8-0.6
	C235.2,268.9,234.8,268.4,234.9,267.9z M241.5,262.2l5.2,0.4l-2-9.4L241.5,262.2z"/>
<path class="st28" d="M254,269.7l1.3-19.4c0-0.4,0.3-0.7,0.6-0.9c0.4-0.2,0.9-0.3,1.4-0.2c0.6,0,1.1,0.2,1.6,0.5
	c0.5,0.5,0.9,1.1,1.1,1.8l5,11.6l0.8-12c0-0.4,0.3-0.7,0.6-0.9c0.9-0.3,1.9-0.3,2.8,0.2c0.3,0.2,0.5,0.6,0.5,0.9l-1.3,19.4
	c0,0.4-0.3,0.7-0.6,0.9c-0.4,0.2-0.9,0.3-1.4,0.2c-0.9,0-1.8-0.5-2.2-1.4l-5.6-12.5l-0.8,12c0,0.4-0.3,0.7-0.6,0.9
	c-0.9,0.4-1.9,0.3-2.7-0.2C254.2,270.4,254,270.1,254,269.7z"/>
<path class="st28" d="M272.2,265.5l0.6-8.4c0.2-2.4,0.9-4,2.3-5.1c1.5-1.1,3.3-1.5,5.1-1.3c1.9,0,3.6,0.7,5.1,1.9
	c1.2,1.1,1.9,2.7,1.7,4.3c0,0.5-0.2,1.1-0.6,1.4c-0.5,0.3-1,0.4-1.5,0.3c-1.3-0.1-1.9-0.5-1.9-1.4c0-0.8-0.2-1.5-0.6-2.2
	c-0.6-0.7-1.4-1-2.3-1c-2.1-0.1-3.2,0.9-3.4,3.2l-0.6,8.4c-0.2,2.3,0.8,3.5,2.9,3.7c0.9,0.1,1.7-0.1,2.4-0.7c0.6-0.7,1-1.6,1-2.5
	l0.1-1.8l-2.4-0.2c-0.4,0-0.7-0.2-0.9-0.5c-0.2-0.3-0.3-0.7-0.2-1.1c0-0.4,0.2-0.7,0.4-1c0.2-0.3,0.6-0.4,0.9-0.4l5.1,0.4
	c0.3,0,0.7,0.2,0.9,0.4c0.2,0.3,0.3,0.6,0.3,0.9l-0.2,3.6c-0.2,2.4-1,4-2.3,5.1c-3.2,2-7.3,1.7-10.2-0.7
	C272.6,269.6,272.1,267.8,272.2,265.5z"/>
<path class="st28" d="M289.3,266.7l1-14c0-0.4,0.3-0.7,0.6-0.9c0.9-0.3,1.9-0.3,2.8,0.2c0.3,0.2,0.5,0.6,0.5,0.9l-1,14
	c-0.2,2.3,0.9,3.5,3,3.7c2.2,0.2,3.4-0.9,3.5-3.2l1-14c0-0.4,0.3-0.7,0.6-0.9c0.9-0.3,1.9-0.3,2.8,0.2c0.3,0.2,0.5,0.6,0.5,0.9
	l-1,14c-0.2,2.4-0.9,4-2.3,5.1c-3.3,2-7.5,1.7-10.5-0.7C289.6,270.8,289.1,269,289.3,266.7z"/>
<path class="st28" d="M304.7,272.7c0-0.1,0-0.2,0.1-0.3l7.1-18.4c0.2-0.4,0.5-0.7,0.9-0.8c0.5-0.2,1.1-0.2,1.6-0.2
	c0.6,0,1.1,0.2,1.6,0.5c0.4,0.2,0.7,0.6,0.8,1l4.5,19.2c0,0.1,0,0.2,0,0.3c-0.1,0.5-0.4,0.9-0.9,1.1c-0.5,0.3-1.1,0.4-1.7,0.4
	c-0.7,0-1.2-0.3-1.3-0.9l-0.9-4.1l-6.4-0.4l-1.4,3.9c-0.2,0.5-0.7,0.7-1.5,0.7c-0.7,0-1.3-0.3-1.8-0.6
	C304.9,273.7,304.6,273.2,304.7,272.7z M311.3,267l5.2,0.4l-2-9.4L311.3,267z"/>
<path class="st28" d="M324,269l0.6-8.4c0.2-2.4,0.9-4,2.3-5.1c1.5-1.1,3.3-1.5,5.1-1.3c1.9,0,3.6,0.7,5,1.9c1.2,1.1,1.9,2.7,1.7,4.3
	c0,0.5-0.2,1.1-0.6,1.4c-0.5,0.3-1,0.4-1.5,0.3c-1.3-0.1-1.9-0.5-1.9-1.4c0-0.8-0.2-1.5-0.6-2.2c-0.6-0.7-1.4-1-2.3-1
	c-2.1-0.1-3.2,0.9-3.4,3.2l-0.6,8.4c-0.2,2.3,0.8,3.5,2.9,3.7c0.9,0.1,1.7-0.1,2.4-0.7c0.6-0.7,1-1.6,1-2.5l0.1-1.8l-2.4-0.2
	c-0.4,0-0.7-0.2-0.9-0.5c-0.2-0.3-0.3-0.7-0.2-1.1c0-0.4,0.2-0.7,0.4-1c0.2-0.3,0.6-0.4,0.9-0.4l5.1,0.4c0.3,0,0.7,0.2,0.9,0.4
	c0.2,0.3,0.3,0.6,0.3,0.9L338,270c-0.2,2.4-0.9,4.1-2.3,5.1c-3.2,2-7.3,1.7-10.2-0.7C324.3,273.2,323.8,271.4,324,269z"/>
<path class="st28" d="M340.7,275.7l1.3-19.4c0-0.4,0.2-0.7,0.6-0.9c0.4-0.2,0.8-0.3,1.2-0.2l10.7,0.7c0.4,0,0.7,0.2,0.9,0.6
	c0.2,0.4,0.3,0.8,0.2,1.2c0,0.4-0.2,0.9-0.4,1.2c-0.2,0.3-0.6,0.5-0.9,0.5l-8.5-0.6l-0.4,6l4.5,0.3c0.4,0,0.7,0.2,0.9,0.5
	c0.2,0.3,0.3,0.7,0.2,1.1c0,0.4-0.2,0.7-0.4,1c-0.2,0.3-0.6,0.4-0.9,0.4l-4.5-0.3l-0.4,6l8.5,0.6c0.4,0,0.7,0.2,0.9,0.6
	c0.2,0.4,0.3,0.8,0.2,1.2c0,0.4-0.2,0.8-0.4,1.1c-0.2,0.3-0.6,0.5-1,0.5l-10.7-0.8c-0.4,0-0.8-0.2-1.2-0.4
	C340.9,276.4,340.7,276,340.7,275.7z"/>
<g>
	
		<image style="overflow:visible;opacity:0.3;" width="124" height="74" xlink:href="EDDE67E9A0BC2CD4.png"  transform="matrix(1 0 0 1 227 145.64)">
	</image>
	<g>
		<g>
			<path class="st27" d="M262.6,157.3c0,0.3-0.1,0.6-0.2,0.9c-0.2,0.5-0.4,0.8-0.5,1.1l-2.3,28.3c0-0.1,0,0.4,0.1,1.6
				c0.1,1.3-0.2,2.2-0.7,2.5c-0.5,0.4-1.7,0.4-3.5,0.1c-1-0.2-2.2-0.5-3.5-1.1c-1.7-0.7-2.6-1.3-2.7-1.9c0.1-0.4,0.1-1,0-1.9
				c-1.3-4.4-2.7-9.2-4.4-14.4l-1,12.7c0,0.2,0.1,0.5,0.2,0.9c0.2,0.5,0.3,0.8,0.3,0.8c0.1,0.4,0.1,0.9,0.1,1.3
				c-0.1,1.1-0.7,1.7-1.7,1.6c-1-0.1-2.4-0.5-4.2-1.2c-1.7-0.7-2.6-1.2-2.8-1.6c-0.3-0.5-0.3-1.1,0.1-1.8c0.4-0.7,0.6-1.1,0.6-1.3
				l2.2-26.9c0-0.2,0-0.4-0.1-0.8c-0.1-0.3-0.1-0.6,0-0.8c0.4-0.9,1-1.6,1.8-1.8c0.1,0,0.5,0,1,0c1.1,0.1,2.2,0.3,3.4,0.7
				c1.5,0.5,2.5,1,3.1,1.7c0.7,0.9,1.6,3.6,2.5,8.1c1.1,5.5,2.1,9.2,2.8,11.2l1.4-16.8c0-0.2,0-0.6-0.1-1c-0.1-0.4-0.1-0.8-0.1-1
				c0-0.2,0.1-0.3,0.1-0.5c0.2-0.5,0.8-0.8,1.7-0.9c0.8-0.1,1.5-0.2,2.2,0c0.7,0.1,1.4,0.3,2.3,0.7
				C261.9,156.4,262.6,156.8,262.6,157.3z"/>
			<path class="st27" d="M277.2,193.1c-0.6,0-1.3-0.1-2-0.4c-0.7-0.3-1.4-0.6-2.1-0.8c-0.8-0.3-2.1-0.8-3.9-1.6
				c-2.2-1.2-3.8-3.3-4.7-6.3c-0.8-2.7-1.1-5.9-0.8-9.6c0.2-3,1-6.5,2.4-10.4c1.8-5.3,3.9-7.8,6.1-7.6c0.2,0,0.5,0.1,0.8,0.2
				c0.3,0.1,0.6,0.2,0.8,0.3c2.2-0.4,3.5-0.6,4.1-0.6c0.3,0,0.6,0.1,0.9,0.1c3.4,0.7,5.9,3.1,7.6,7.1c1.5,3.6,2,7.9,1.6,12.7
				c-0.4,4.6-1.5,8.4-3.4,11.6C282.7,191.2,280.2,193,277.2,193.1z M279,161.6c-0.6-0.2-1.3,0.6-2.1,2.4c-0.8,1.8-1.5,2.7-2.1,2.6
				c-0.1,0-0.3-0.1-0.6-0.3c-0.3-0.2-0.5-0.3-0.6-0.3c-1.1,2.1-1.9,5.1-2.2,9.1c-0.3,3.1-0.1,5.8,0.3,8.1c0.5,2.5,1.5,4,2.8,4.4
				c1.5,0.4,2.9-1.1,4.1-4.5c1.1-3,1.8-6.5,2.1-10.7c0.2-2.8,0.2-5.2-0.1-7.2C280.4,163.1,279.8,161.9,279,161.6z"/>
			<path class="st27" d="M328.3,163.9c-2.5,3.8-5,9.8-7.5,17.9c-2,6.6-3.1,10.7-3.1,12.1c-0.1,0.2-0.1,0.5,0,0.9
				c0.1,0.3,0.1,0.6,0,0.8c-0.3,1.3-0.8,2-1.3,2c-0.5,0-1.9-0.6-4.2-1.8c-2.4-1.3-3.7-2.2-3.8-2.7c0-0.1,0-0.9,0.1-2.7
				c-0.9-3.9-1.4-7.8-1.5-11.7c-1,2-1.9,4-2.9,6c-0.9,2.2-1.4,4.4-1.6,6.6c-0.1,0.3-0.1,0.6-0.1,1c0,0.5,0,0.8,0,1.1
				c-0.4,1.2-0.8,1.9-1.4,2c-0.2,0-0.4,0.1-0.7,0c-1.3-0.1-2.8-0.5-4.4-1.3c-2-0.9-3.1-1.8-3.3-2.9c0-0.2,0.1-1,0.1-2.2
				c-0.9-5-1.5-9.5-1.6-13.5c-0.1-3.8,0-8.5,0.6-13.9c-0.1-1.4-0.2-2.2,0-2.5c0.5-1.2,1-1.8,1.7-1.7c0.7,0.1,1.9,0.6,3.4,1.6
				c1.6,1,2.4,1.7,2.4,2.3c0,0.2-0.1,1-0.3,2.4c-0.2,1.3-0.4,2.5-0.5,3.6c-0.2,2.4-0.1,6.4,0.3,12l7.5-18.3c0.1-0.4,0.3-0.9,0.6-1.5
				c0.4-0.4,0.8-0.6,1.3-0.7c0.3,0,1.4,0.5,3.3,1.6c1.9,1.1,2.8,1.9,2.8,2.2c0,0.2-0.1,1.2-0.3,2.9c-0.3,2-0.4,3.8-0.6,5.3
				c-0.3,3.7-0.3,6.9-0.1,9.6c1.1-3.9,2.4-7.9,4-12c1.2-3.3,2.1-5.5,2.7-6.6c0.4-1.4,1.2-2,2.4-1.7c1,0.2,2,0.6,3.1,1.2
				C327.3,162.2,328.1,163.1,328.3,163.9z"/>
		</g>
	</g>
</g>
</svg>
