<svg xmlns="http://www.w3.org/2000/svg" viewBox="0 0 428.5 298.69"><defs><style>.cls-1{fill:#fdc88e;}.cls-2{fill:#f5b97a;}.cls-3{fill:#ffd7a3;}.cls-4{fill:#ff6473;}.cls-5{fill:#623f33;}.cls-6{fill:#e4b07b;}.cls-7{fill:#f05467;}.cls-8{fill:#bd445a;}.cls-9{fill:#9d6e48;}.cls-10{fill:#8d5f3d;}.cls-11{fill:#72b7d3;}.cls-12{fill:#fee1bd;}.cls-13{fill:#fdd6a3;}.cls-14{fill:#439fc4;}.cls-15{fill:#fbc58e;}.cls-16{fill:#be475c;}.cls-17{fill:#fe8792;}.cls-18{fill:#fdfbfb;}.cls-19{fill:#fcd4ab;}.cls-20{fill:#fcd5ab;}.cls-21{fill:#b83b56;}.cls-22{fill:#d48f60;}.cls-23{fill:#c57e52;}.cls-24{fill:#43a0c5;}.cls-25{fill:#ffe1b2;}.cls-26{fill:#57b9dd;}.cls-27{fill:#ca8357;}.cls-28{fill:#f2f0bc;}.cls-29{fill:#59d3c6;}.cls-30{fill:#f8735d;}.cls-31{fill:#333;}</style></defs><title>main</title><g id="Layer_2" data-name="Layer 2"><g id="Layer_1-2" data-name="Layer 1"><path class="cls-1" d="M210.53,111.35l-.17-1.53a1.11,1.11,0,0,0-1.22-1H209l-1.65-13.19a7.51,7.51,0,0,0-5.08-6.19l-9.16-3.05a3.75,3.75,0,0,0-3.61.67l-2.7-.9a3.75,3.75,0,0,1-2.57-3.56V76.58l8.08-3.37a11.26,11.26,0,0,0,6.93-10.39V60.94a5.63,5.63,0,0,0,4.44-9.09,48,48,0,0,0,1.19-30.32S204.26,21,203,20.3C202.67,16,201.18,14,201.18,14l-6.85,2.28a73.5,73.5,0,0,0-25.05-4.16A7.93,7.93,0,0,1,165.52,14a102.66,102.66,0,0,0-13.14-1.88l-3.75,9.38s-9.38-.08-9.38,11.26c0,4.16,2.32,14.53,3.31,18.77a5.63,5.63,0,0,0,4.2,9.38v1.88a11.26,11.26,0,0,0,6.93,10.39l8.08,3.37v6.05a3.75,3.75,0,0,1-2.57,3.56l-2.7.9a3.75,3.75,0,0,0-3.61-.67l-9.16,3.05a7.51,7.51,0,0,0-5.08,6.19L137,108.85h-.1a1.11,1.11,0,0,0-1.22,1l-.17,1.53a1.1,1.1,0,0,0,1,1.22l2.75.3v4.37A3.75,3.75,0,0,0,143,121h60.06a3.75,3.75,0,0,0,3.75-3.75v-4.37l2.75-.3A1.1,1.1,0,0,0,210.53,111.35Z"/><path class="cls-2" d="M184.29,76.43H161.77v6.21a3.72,3.72,0,0,1-1.88,3.2C175.62,88.59,184.29,76.43,184.29,76.43Z"/><path class="cls-3" d="M199.3,49.68V45.93a9.38,9.38,0,0,0-9.38-9.38H156.14a9.38,9.38,0,0,0-9.38,9.38v3.75a5.63,5.63,0,0,0,0,11.26v1.88a11.26,11.26,0,0,0,6.93,10.39l12.13,5.05A18.77,18.77,0,0,0,173,79.71h0a18.77,18.77,0,0,0,7.22-1.44l12.13-5.05a11.26,11.26,0,0,0,6.93-10.39V60.94a5.63,5.63,0,0,0,0-11.26Z"/><path class="cls-4" d="M193.67,121v-9.38h15.72l-2-15.95a7.51,7.51,0,0,0-5.08-6.19l-9.16-3.05a3.69,3.69,0,0,0-4.29,1.46,18.75,18.75,0,0,1-31.68,0,3.69,3.69,0,0,0-4.29-1.46l-9.16,3.05a7.51,7.51,0,0,0-5.08,6.19l-1.79,14.28,15.51,0v11Z"/><path class="cls-5" d="M159.89,57.19h0A1.88,1.88,0,0,1,158,55.31V53.44a1.88,1.88,0,0,1,1.88-1.88h0a1.88,1.88,0,0,1,1.88,1.88v1.88A1.88,1.88,0,0,1,159.89,57.19Z"/><path class="cls-5" d="M186.16,57.19h0a1.88,1.88,0,0,1-1.88-1.88V53.44a1.88,1.88,0,0,1,1.88-1.88h0A1.88,1.88,0,0,1,188,53.44v1.88A1.88,1.88,0,0,1,186.16,57.19Z"/><path class="cls-6" d="M173,70.38a15.63,15.63,0,0,1-8.56-2.25,1.88,1.88,0,1,1,2.11-3.1,13.79,13.79,0,0,0,12.9,0,1.88,1.88,0,1,1,2.11,3.1A15.63,15.63,0,0,1,173,70.38Z"/><path class="cls-1" d="M156.6,69.32a8.8,8.8,0,0,1-2.34-6V46.75c5.18-2.8,20.32-10.2,35.66-10.2H156.14a8.82,8.82,0,0,0-1.88.21v0a9.39,9.39,0,0,0-7.51,9.19v3.75a5.63,5.63,0,0,0,0,11.26v1.88a11.26,11.26,0,0,0,6.93,10.39l12.13,5.05a18.79,18.79,0,0,0,1.81.64A78.33,78.33,0,0,1,156.6,69.32Z"/><path class="cls-7" d="M152.38,113v-4.25a7.51,7.51,0,0,0-1.83-4.92L140.22,91.95a7.49,7.49,0,0,0-1.56,3.72l-2,15.68C139.68,111.53,147.62,112.46,152.38,113Z"/><path class="cls-8" d="M152.38,110.56l-15.47-1.72a1.11,1.11,0,0,0-1.22,1l-.17,1.53a1.1,1.1,0,0,0,1,1.22l15.88,1.76Z"/><path class="cls-7" d="M193.67,113v-4.25a7.51,7.51,0,0,1,1.83-4.92l10.33-11.92a7.49,7.49,0,0,1,1.56,3.72l2,15.68C206.37,111.53,198.43,112.46,193.67,113Z"/><path class="cls-8" d="M193.67,110.56l15.47-1.72a1.11,1.11,0,0,1,1.22,1l.17,1.53a1.1,1.1,0,0,1-1,1.22l-15.88,1.76Z"/><path class="cls-9" d="M204.93,21.53S204.26,21,203,20.3C202.67,16,201.18,14,201.18,14l-6.85,2.28a73.5,73.5,0,0,0-25.05-4.16A7.93,7.93,0,0,1,165.52,14a102.66,102.66,0,0,0-13.14-1.88l-3.75,9.38s-9.38-.08-9.38,11.26c0,4.17,2.33,14.57,3.31,18.8a5.59,5.59,0,0,1,4.19-1.9V45.93A9.38,9.38,0,0,1,156,36.56a20.85,20.85,0,0,0-1.74,5.62A33,33,0,0,1,173,36.54h16.89a9.38,9.38,0,0,1,9.38,9.38v3.75a5.6,5.6,0,0,1,4.43,2.19A48,48,0,0,0,204.93,21.53Z"/><path class="cls-10" d="M201.18,14l-6.85,2.28a73.5,73.5,0,0,0-25.05-4.16A7.93,7.93,0,0,1,165.52,14a102.66,102.66,0,0,0-13.14-1.88l-3.75,9.38s-9.38-.08-9.38,11.26c0,4.17,2.33,14.57,3.31,18.8a5.59,5.59,0,0,1,4.19-1.9V45.93a9.35,9.35,0,0,1,8.56-9.3,16.74,16.74,0,0,0-1,5.55c7.39-9.38,17.89-12.77,26.27-15s9.38-5.63,9.38-5.63S198.13,21.06,201.18,14Z"/><path class="cls-11" d="M266.16,105.67h-44l-.21-.9a3.28,3.28,0,0,1,1.45-1.09c13.57-1,27.16-.57,40.74-.26a4.91,4.91,0,0,1,1.67.68,1.13,1.13,0,0,1,.36,1.56Z"/><path class="cls-12" d="M266.16,105.67l.44-1a7,7,0,0,1,8.56,0,6.81,6.81,0,0,0,0,1Z"/><path class="cls-12" d="M221.72,104.67l.44,1h-9a6.81,6.81,0,0,0,0-1A7,7,0,0,1,221.72,104.67Z"/><path class="cls-13" d="M266.16,92.67l8.71-13.21c2.49,6.78,3,13.86,3.26,21,.07,2.06-1.21,3.36-3,4.24l-8.61-.08h-.25l-.24.08A11.51,11.51,0,0,1,266.16,92.67Z"/><path class="cls-14" d="M266.16,92.67l-.09,12H222.21q0-6-.09-12Z"/><path class="cls-15" d="M178.16,122.67h-1a10.73,10.73,0,0,1-1.09-1.39,5.57,5.57,0,0,1,.43-5.91c2.51-2.42,5.57-2.73,8.83-2.3,1.92,0,3.83-1.26,5.78-.09a3.53,3.53,0,0,1,1.16,1.29c1.11,3.48,1,6.47-3.14,7.87C185.48,122.48,181.77,121.62,178.16,122.67Z"/><path class="cls-15" d="M134.16,122.67h-1c-3.55-1.08-7.18-.21-10.77-.52-4.25-1.13-4.32-4.16-3.45-7.61a3.8,3.8,0,0,1,1.08-1.39,3.67,3.67,0,0,1,2.53-.53c4,1.24,8.79-1.08,12.24,2.71a5.54,5.54,0,0,1,.47,5.94A10.33,10.33,0,0,1,134.16,122.67Z"/><path class="cls-16" d="M134.08,115.67,122,113.78a1.66,1.66,0,0,1,1.62-.56H122a3.09,3.09,0,0,0-1.77.35.65.65,0,0,0,0,.53c-1.86,1-3.09.28-4-1.38v-2l1.75-1.19c4.68-2.55,12.73-1.71,16.88,1.76C135.52,112.88,135.54,114.4,134.08,115.67Z"/><path class="cls-16" d="M186.05,114.3l-8.81,1.37c-1.46-1.26-1.43-2.77-.72-4.39,4.12-3.5,12.19-4.35,16.88-1.79l1.76,1.18v2c-.93,1.65-2.16,2.43-4,1.38a.65.65,0,0,0,0-.53A5.32,5.32,0,0,0,186.05,114.3Z"/><path class="cls-17" d="M134.16,122.67l.06-1.06c1.54-1.85,3.65-2,5.85-2.06q15.59-.11,31.18,0c2.19,0,4.31.21,5.85,2.06l.06,1.06Z"/><path class="cls-18" d="M191.16,114.07l4-1.38a20.61,20.61,0,0,0,0,4c1,5.15-.91,7.14-6,6q-1-.45-.09-1C191.78,119.67,190.88,116.67,191.16,114.07Z"/><path class="cls-18" d="M116.16,112.67l4,1.38c.26,2.64-.64,5.6,2.07,7.57q.86.6-.09,1c-5.13,1.13-7.07-.86-6-6A20.61,20.61,0,0,0,116.16,112.67Z"/><path class="cls-19" d="M122.16,122.67l.09-1c3.62.53,7.43-1,10.91,1Z"/><path class="cls-20" d="M189.07,121.67l.09,1h-11C181.64,120.67,185.45,122.17,189.07,121.67Z"/><path class="cls-21" d="M186.05,114.3c-.25-.52-1.82-1.26,0-1.52s3.54-.49,5.08.75Z"/><path class="cls-21" d="M120.16,113.54c1.79-1.18,3.67-1.07,6.58-.18l-4.79.42Z"/><path class="cls-3" d="M310.53,16.73c0-9.6-5.46-16.73-14.87-16.73a18.54,18.54,0,0,0-11.13,3.84,1.86,1.86,0,0,0-3,1.7C276.94,1.78,272,0,269.64,0c-6,0-9.29,1.86-9.29,1.86S257.1,0,251.06,0c-2.36,0-7.3,1.78-11.93,5.55a1.86,1.86,0,0,0-3-1.7A18.54,18.54,0,0,0,225,0c-9.41,0-14.87,7.12-14.87,16.73s10.84,35.93,5.58,52c0,0,12.17-4.19,17.56-20.54a5.59,5.59,0,0,0,1,.1v1.86a11.15,11.15,0,0,0,6.86,10.29l8,3.34v6a3.72,3.72,0,0,1-2.54,3.53l-7.51,2.76-.13-.21a1.86,1.86,0,0,0-2.53-.61l-6.1,3.66a1.86,1.86,0,0,0-.73,2.38A9.28,9.28,0,0,0,228,85.47l-2.13,16a5.58,5.58,0,0,0,5.53,6.31h57.89a5.58,5.58,0,0,0,5.53-6.31l-2.13-16A9.28,9.28,0,0,0,291,81.32a1.86,1.86,0,0,0-.73-2.38l-6.1-3.66a1.86,1.86,0,0,0-2.53.61l-.13.21L274,73.33a3.72,3.72,0,0,1-2.54-3.53v-6l8-3.34a11.15,11.15,0,0,0,6.86-10.29V48.32a5.59,5.59,0,0,0,1-.1C292.78,64.57,305,68.77,305,68.77,299.69,52.66,310.53,26.48,310.53,16.73Z"/><path class="cls-1" d="M271.5,63.65H249.2V69.8h0c0,.09,0,.18,0,.27s0,.09,0,.14v.11c0,.07,0,.14,0,.21h0A3.72,3.72,0,0,1,247.4,73C262.94,75.67,271.5,63.65,271.5,63.65Z"/><path class="cls-22" d="M280.79,7.43S286.25,0,295.66,0s14.87,7.12,14.87,16.73-10.84,35.93-5.58,52c0,0-13.94-4.8-18.59-24.16-4.26-17.75,1.86-29.74,1.86-29.74Z"/><path class="cls-23" d="M287.3,9.29s5.92-4.41,10.22-1.86c9.46,5.63,1.73,21.08,0,29.74-2.32,11.62-1.39,22.77,7.43,31.59,0,0-13.94-4.8-18.59-24.16-4.26-17.75.93-29.74.93-29.74Z"/><path class="cls-24" d="M289.18,11.77h0a1.86,1.86,0,0,0,.15-2.62L284.8,4.09a1.86,1.86,0,0,0-2.62-.15h0A1.86,1.86,0,0,0,282,6.57l4.52,5.05A1.86,1.86,0,0,0,289.18,11.77Z"/><path class="cls-22" d="M239.9,7.43S234.45,0,225,0s-14.87,7.12-14.87,16.73,10.84,35.93,5.58,52c0,0,13.94-4.8,18.59-24.16,4.26-17.75-1.86-29.74-1.86-29.74Z"/><path class="cls-23" d="M233.63,9.29s-6.16-4.41-10.45-1.86c-9.46,5.63-1.73,21.08,0,29.74,2.32,11.62,1.39,22.77-7.43,31.59,0,0,13.94-4.8,18.59-24.16,4.26-17.75-.7-29.74-.7-29.74Z"/><path class="cls-24" d="M231.52,11.77h0a1.86,1.86,0,0,1-.15-2.62l4.52-5.05a1.86,1.86,0,0,1,2.62-.15h0a1.86,1.86,0,0,1,.15,2.62l-4.52,5.05A1.86,1.86,0,0,1,231.52,11.77Z"/><path class="cls-25" d="M286.37,37.17V33.45c0-5.13-4.16-13-9.29-13H243.62c-5.13,0-9.29,7.88-9.29,13v3.72a5.58,5.58,0,1,0,0,11.15v1.86a11.15,11.15,0,0,0,6.86,10.29l12,5a18.58,18.58,0,0,0,7.15,1.43h0a18.59,18.59,0,0,0,7.15-1.43l12-5a11.15,11.15,0,0,0,6.86-10.29V48.32a5.58,5.58,0,1,0,0-11.15Z"/><path class="cls-5" d="M247.34,44.6h0a1.86,1.86,0,0,1-1.86-1.86V40.89A1.86,1.86,0,0,1,247.34,39h0a1.86,1.86,0,0,1,1.86,1.86v1.86A1.86,1.86,0,0,1,247.34,44.6Z"/><path class="cls-5" d="M273.36,44.6h0a1.86,1.86,0,0,1-1.86-1.86V40.89A1.86,1.86,0,0,1,273.36,39h0a1.86,1.86,0,0,1,1.86,1.86v1.86A1.86,1.86,0,0,1,273.36,44.6Z"/><path class="cls-6" d="M260.35,57.67a15.48,15.48,0,0,1-8.48-2.23A1.86,1.86,0,1,1,254,52.36a13.65,13.65,0,0,0,12.78,0,1.86,1.86,0,0,1,2.09,3.07A15.48,15.48,0,0,1,260.35,57.67Z"/><path class="cls-3" d="M234.33,37.17a5.58,5.58,0,1,0,0,11.15v1.86a11.15,11.15,0,0,0,6.86,10.29l12,5a18.61,18.61,0,0,0,1.8.64,77.57,77.57,0,0,1-10.91-9.5,8.71,8.71,0,0,1-2.32-6V40.28c5.32-1.86,20.25-8,20.44-18a30.57,30.57,0,0,0-.39-6C259,31.16,236.21,37.17,234.33,37.17Z"/><path class="cls-26" d="M281.68,75.89,275,86.59a5.58,5.58,0,0,1-4.73,2.62H250.43a5.58,5.58,0,0,1-4.73-2.62L239,75.89a1.86,1.86,0,0,0-2.53-.61l-6.1,3.66a1.86,1.86,0,0,0-.62,2.58L238,94.78h44.6l8.29-13.26a1.86,1.86,0,0,0-.62-2.58l-6.1-3.66A1.86,1.86,0,0,0,281.68,75.89Z"/><rect class="cls-24" x="238.05" y="94.78" width="44.6" height="13.01"/><path class="cls-22" d="M269.64,0c-6,0-9.29,1.86-9.29,1.86S257.1,0,251.06,0s-29,11.63-20.44,38.58c0,0,29.74-5.28,29.74-18.13,0,12.85,29.74,18.13,29.74,18.13C298.6,11.63,275.68,0,269.64,0Z"/><path class="cls-27" d="M260.35,1.86h0S257.1,0,251.06,0s-29,11.63-20.44,38.58c0,0,3.6-.64,8.29-2C233.65,12.4,254.59,1.88,260.35,1.86Z"/><path class="cls-28" d="M20.16,188.67v-5c1.88-15.2,11.68-24.89,23.35-33.14,18.32-12.94,39.12-20.42,60.36-26.76,13-3.89,26.47-6.22,39.59-9.63,12.15-3.16,23.76-8.45,35.56-13,21.25-8.12,42.53-16.19,63.67-24.58,15.88-6.31,31.38-13.66,48.21-17.28,3.39-.73,6.85-1.11,10.28-1.66h15c13.29,1.2,21,9.79,26.77,20.61,7.83,14.55,11.42,30.32,13.29,46.6,1.42,12.27,1.1,24.46.08,36.76-1.23,14.91,2.4,29.36,6,43.67,4.94,19.61,9.91,39.18,11.85,59.38v13c-2.13,12.2-8.06,17.92-20.69,19.93-2.44.39-4.89.71-7.34,1.07h-17c-18.92-2-37.82-4.28-56.78-5.82-16.7-1.36-33.43-2.53-50.23-2.17-36.71.8-72.29-5.43-106.93-17.45-22.94-8-44.44-18.65-63.08-34.35-12.86-10.82-23.36-23.69-29.52-39.59C21.32,195.95,20.93,192.24,20.16,188.67Z"/><path class="cls-29" d="M394.16,268.67h-2c-3.48-1.27-5.73-3.86-7.51-7a46.64,46.64,0,0,1-3.19-6.22c-6.54-16.77-19.67-25.29-36.39-29.65a190.28,190.28,0,0,0-32.43-5.59c-16.9-1.4-33.86-2.69-50.82-2.11-24.6.83-49.21,2.38-73.82,1.72-32.92-.88-65.86-2.29-98.09-10-18.75-4.46-36.48-11.26-51.75-23.69-7.82-6.38-17.54-7.56-27.31-8.1-3.56-.2-7.37,1-10.58-1.59-1-3.12.92-5,3-6.69,10.27-8.46,20.93-16.43,31.43-24.6,6.57-5.12,6.72-5.33,4.37-13.37-6.78-23.16-13-46.47-19.73-69.66-.71-2.46-2.9-5.89.41-7.68s4.82,1.73,6.69,3.74C52,85.41,82.65,103,120.28,107.49c18.83,2.26,37.66,4,56.6,5.11,20.41,1.15,40.84,2,61.25,3,29.2,1.45,58.48,2.25,87.52,6a171.7,171.7,0,0,1,43.66,12.17A247.62,247.62,0,0,1,424,165.62a11.38,11.38,0,0,1,4.41,5.83c.72,3.86-2.11,4.73-4.82,5.76-14.3,5.45-28.83,10.28-43.14,15.72-6,2.28-6,2.5-3.77,8.72,6.48,18,13.25,35.91,18.17,54.42C396,260.23,398.22,264.67,394.16,268.67Z"/><path class="cls-30" d="M170.23,241.56c0,.17-.47.63-.47.63l-.12.3-1,.47.7.08a5.75,5.75,0,0,0-1.1.6c-.4.35-.53.7-.83.83a48.22,48.22,0,0,0-10.52,3.77c-.77.4-2.25-2.82-1-3.5l.55-.22c-.07-4.27-.1-11.8-.57-13.4a5.12,5.12,0,0,1,2-.33,91.12,91.12,0,0,1,10-.37,5.53,5.53,0,0,0,0,.65,2.68,2.68,0,0,0-.77.55c-.08.07-.58.45-.58.45h.5l-.8.45,0,.3s-1,.45-1.15.5-2.67.47-4.85.85c0,.2,0,.4,0,.6,0,.65,0,1.25-.1,1.85a56.87,56.87,0,0,1,6.3-.5,3.4,3.4,0,0,1-.2.53l-.1.6-.77.45h.33l-.83.55,0,.25-.9.25-.15.3s-.9.42-1.25.58c-.15,0-1.55.42-2.77.75-.1,1.33-.23,2.35-.33,3C162.76,242.16,167.33,241.06,170.23,241.56Z"/><path class="cls-30" d="M181.13,246.88c-.2.55-1.77,1-2.7.9-.67-.08-1-.48-1.2-1.5a95.5,95.5,0,0,1-5.12-9.17c-.28,4-.62,7.87-.62,7.87l-.15,0-.62,1.22-.37.2-.3.82-.3-.25-.35.85a1.33,1.33,0,0,0-.45.07.83.83,0,0,0-.3.3c-.17-1,0-15.27-.6-17.35a5.4,5.4,0,0,1,1-.23c1.37-.57,3.3-.47,3.9,1.1,1.25,3.37,3.12,7.4,4.22,9.72a86.09,86.09,0,0,1,1.15-11.87c.08,0,.1.53.17.58s.15-.33.2-.28.27.88.35,1,.45,0,.45,0a18.08,18.08,0,0,1,1.1,2.25l.08.23C180.33,245.41,181.36,246.16,181.13,246.88Z"/><path class="cls-30" d="M187.43,247.58c-3.37,0-6.9-2.5-6.72-8,.32-9.57,10.85-10.72,10.77-7.52,0,1.1-.6,2.82-1.4,3.15-4-2-7.27,1.65-7.37,4.75-.08,1.58,1.85,3.8,4.55,3.8a6.38,6.38,0,0,0,4.85-2.67c-1.82-.12-4.9-.45-5.07-.45a5.8,5.8,0,0,1-2.55-2.1,15.19,15.19,0,0,1,3.32-.62,24.49,24.49,0,0,0-3.67.25c-.17,0-.28-.1-.3-.2,1.67-.2,6.4-1,8.57-.7,1,.13,1.45,2.3,1.28,3.32A6.11,6.11,0,0,1,187.43,247.58Z"/><path class="cls-30" d="M204.63,242.94l-.35.7.15.08a1.67,1.67,0,0,1-.45.3,41.5,41.5,0,0,0-8,4.8c-.75.55-3.52-3.45-2-4.27a1.57,1.57,0,0,1,.35-.2c.35-4.5,1-12.57.15-14.27,0,0,4.45-2.12,4.45,3a52.72,52.72,0,0,1-1.17,9.5c2.25-1,4.85-2,6.9-1.8,0,.08-.55.22-.5.33s.73.17.75.3-.27.58-.27.58Z"/><path class="cls-30" d="M205.11,230.19c1-.3,3.82-.65,3.72,3.7-.1,4.82-.62,10.62-.62,10.62s-.1.2-.35.6c-.15.23-.5,1-.5,1a1.13,1.13,0,0,0-.47.33,4.87,4.87,0,0,0-.2.5l-.2,0-.3.47s-.17-.12-.22-.1-.2.33-.3.33c-.17-1-.27-14.3-.87-17A.46.46,0,0,1,205.11,230.19Z"/><path class="cls-30" d="M220.38,233.34a19.74,19.74,0,0,0-6.9,1.42c0,.45,9.27,1.92,8.92,7.57C222.13,247,219,248,215.59,248a5.94,5.94,0,0,1-5.57-5.52,12.94,12.94,0,0,1,.52-3.2,23.35,23.35,0,0,0-.08,2.45,20.5,20.5,0,0,1,.3-2.72l.4-.45.13.3c-.45,7.72,8.95,4.8,9,3.6.13-2.17-10.72-2.87-10.47-7.2.13-2.17.4-2.07.4-2.07.15-2.72,8.47-3.35,9.3-3.35A2.47,2.47,0,0,1,220.38,233.34Z"/><path class="cls-30" d="M234.16,235.06a83.78,83.78,0,0,0-.62,10.12l-.1.25-.15,0-.15.78-.18,0-.17,0-.35,1.52-.28-.22-.12.22-.3,0s-.07.38-.17.4a.42.42,0,0,1-.17,0,21.32,21.32,0,0,1-1.1-5.5,1,1,0,0,1-.33.15,34.55,34.55,0,0,0-4.37.63c-.07,1.12-.12,1.82-.12,1.82l-.17-.22-.12.65-.3.08-.33.95-.72.45-.42.6-.22-.15-.2.67s-.22.27-.33.3c-.17-1-.2-14.95-.8-17.85a.42.42,0,0,1,.35-.4c1.1-.35,4-.82,3.9,3.77,0,1.92-.15,4-.25,5.8a20.41,20.41,0,0,1,4.27,0,58.48,58.48,0,0,1,.27-9.3c1.08-.47,3.6-.47,4,.7C234.61,231.89,234.43,232.94,234.16,235.06Z"/><path class="cls-30" d="M166.53,272.94l-.35.7.15.08a1.67,1.67,0,0,1-.45.3,41.5,41.5,0,0,0-8,4.8c-.75.55-3.52-3.45-2-4.27a1.57,1.57,0,0,1,.35-.2c.35-4.5,1-12.57.15-14.27,0,0,4.45-2.12,4.45,3a52.72,52.72,0,0,1-1.17,9.5c2.25-1,4.85-2,6.9-1.8,0,.08-.55.22-.5.33s.73.17.75.3-.27.58-.27.58Z"/><path class="cls-30" d="M177.46,276.43a2.78,2.78,0,0,1-.17.8c-.05.13-.28.22-.33.27s0,.15-.08.2a1.3,1.3,0,0,1-.25.15,1,1,0,0,1-.4.05c-.53,0-1.5-1.5-2.52-3.67a3.58,3.58,0,0,1-.55.2,34.09,34.09,0,0,0-5.52.47c-.57,1.1-1.17,2.17-1.85,3.25-.12,0-.12-.23-.27-.35s-.28.1-.37,0A5.94,5.94,0,0,1,165,277a.69.69,0,0,1-.47-.42,5.84,5.84,0,0,1,.08-1s-.28.33-.33.15a2.89,2.89,0,0,1,0-.92c.47-1.4,3.27-7.77,3.75-14.25,2-.25,3.17-.17,3.77.2,1,0,1.88.27,2,1.38a42,42,0,0,0,3.57,13.07c0,.28-.28-.27-.25-.08S177.46,276.28,177.46,276.43Zm-4.95-4.85c-.6-1.42-1.17-2.95-1.67-4.42-.52,1.55-1,3-1.6,4.3A28.68,28.68,0,0,1,172.51,271.58Z"/><path class="cls-30" d="M189.48,276.88c-.2.55-1.77,1-2.7.9-.67-.08-1-.48-1.2-1.5a95.5,95.5,0,0,1-5.12-9.17c-.28,4-.62,7.87-.62,7.87l-.15,0-.62,1.22-.37.2-.3.82-.3-.25-.35.85a1.33,1.33,0,0,0-.45.07.83.83,0,0,0-.3.3c-.17-1,0-15.27-.6-17.35a5.4,5.4,0,0,1,1-.23c1.37-.57,3.3-.47,3.9,1.1,1.25,3.37,3.12,7.4,4.22,9.72a86.09,86.09,0,0,1,1.15-11.87c.08,0,.1.53.17.58s.15-.33.2-.28.27.88.35,1,.45,0,.45,0a18.08,18.08,0,0,1,1.1,2.25l.08.23C188.68,275.41,189.71,276.16,189.48,276.88Z"/><path class="cls-30" d="M195.79,277.58c-3.37,0-6.9-2.5-6.72-8,.32-9.57,10.85-10.72,10.77-7.52,0,1.1-.6,2.82-1.4,3.15-4-2-7.27,1.65-7.37,4.75-.08,1.58,1.85,3.8,4.55,3.8a6.38,6.38,0,0,0,4.85-2.67c-1.82-.12-4.9-.45-5.07-.45a5.8,5.8,0,0,1-2.55-2.1,15.19,15.19,0,0,1,3.32-.62,24.49,24.49,0,0,0-3.67.25c-.17,0-.28-.1-.3-.2,1.67-.2,6.4-1,8.57-.7,1,.13,1.45,2.3,1.28,3.32A6.11,6.11,0,0,1,195.79,277.58Z"/><path class="cls-30" d="M207.21,275.73c5.35-1.82,3.92-13.6,1.45-15.27l.18-.22a2.49,2.49,0,0,1,.42,0,7.3,7.3,0,0,1,2.27,2.58,5.88,5.88,0,0,0-1.87-2.62c6.57,1.45,6.7,18.25-.58,17.9s-7.52-8.75-7.47-10.95a30.52,30.52,0,0,1,.92-5.55s-.2-.65,0-.78c.7-.6,4.12-.55,4.1,1.67C206.59,263.16,204.24,271.76,207.21,275.73Z"/><path class="cls-30" d="M226.16,276.43a2.78,2.78,0,0,1-.17.8c-.05.13-.28.22-.33.27s0,.15-.08.2a1.3,1.3,0,0,1-.25.15,1,1,0,0,1-.4.05c-.53,0-1.5-1.5-2.52-3.67a3.58,3.58,0,0,1-.55.2,34.09,34.09,0,0,0-5.52.47c-.57,1.1-1.17,2.17-1.85,3.25-.12,0-.12-.23-.27-.35s-.28.1-.37,0a5.94,5.94,0,0,1-.15-.77.69.69,0,0,1-.47-.42,5.84,5.84,0,0,1,.08-1s-.28.33-.33.15a2.89,2.89,0,0,1,0-.92c.47-1.4,3.27-7.77,3.75-14.25,2-.25,3.17-.17,3.77.2,1,0,1.88.27,2,1.38A42,42,0,0,0,226,275.23c0,.28-.28-.27-.25-.08S226.16,276.28,226.16,276.43Zm-4.95-4.85c-.6-1.42-1.17-2.95-1.67-4.42-.52,1.55-1,3-1.6,4.3A28.68,28.68,0,0,1,221.21,271.58Z"/><path class="cls-30" d="M231.29,277.58c-3.37,0-6.9-2.5-6.72-8,.32-9.57,10.85-10.72,10.77-7.52,0,1.1-.6,2.82-1.4,3.15-4-2-7.27,1.65-7.37,4.75-.08,1.58,1.85,3.8,4.55,3.8a6.38,6.38,0,0,0,4.85-2.67c-1.82-.12-4.9-.45-5.07-.45a5.8,5.8,0,0,1-2.55-2.1,15.19,15.19,0,0,1,3.32-.62,24.49,24.49,0,0,0-3.67.25c-.17,0-.28-.1-.3-.2,1.67-.2,6.4-1,8.57-.7,1,.13,1.45,2.3,1.28,3.32A6.11,6.11,0,0,1,231.29,277.58Z"/><path class="cls-30" d="M251.44,271.56c0,.17-.47.63-.47.63l-.12.3-1,.47.7.08a5.75,5.75,0,0,0-1.1.6c-.4.35-.53.7-.83.83a48.22,48.22,0,0,0-10.52,3.77c-.77.4-2.25-2.82-1-3.5l.55-.22c-.07-4.27-.1-11.8-.57-13.4a5.12,5.12,0,0,1,2-.33,91.12,91.12,0,0,1,10-.37,5.53,5.53,0,0,0,0,.65,2.68,2.68,0,0,0-.77.55c-.08.07-.58.45-.58.45h.5l-.8.45,0,.3s-1,.45-1.15.5-2.67.47-4.85.85c0,.2,0,.4,0,.6,0,.65,0,1.25-.1,1.85a56.87,56.87,0,0,1,6.3-.5,3.4,3.4,0,0,1-.2.53l-.1.6-.77.45h.33l-.83.55,0,.25-.9.25-.15.3s-.9.42-1.25.58c-.15,0-1.55.42-2.77.75-.1,1.33-.23,2.35-.33,3C244,272.16,248.54,271.06,251.44,271.56Z"/><path class="cls-30" d="M238.89,93.82c2.59,1,6.15,4.32,6.58,6.87a8.16,8.16,0,0,0-2.5-3.28s2.23,2.52,2.38,3.67a1.17,1.17,0,0,0-.18-.08s0,.59-.18.69a5.27,5.27,0,0,0-.58.41l-.31-.13a24.51,24.51,0,0,0-6.77-5.08,15,15,0,0,1-1.18,1.67c.75,1.94,1.26,3.33,1.26,3.33s0,.32-.08.84a6.7,6.7,0,0,0,0,1.15,1.26,1.26,0,0,0-.33.48c0,.09,0,.55,0,.55l-.18.08-.06.58s-.24-.05-.28,0,0,.4-.13.44c-.6-.82-6.39-13.15-8.14-15.46a.44.44,0,0,1,.18-.5c.83-.71,3.34-2.25,5.07,1.79.48,1.1.94,2.21,1.38,3.3a14.2,14.2,0,0,0,1.12-8.55c.13-1.52,3.91-1.06,4.21.48C240.51,88.91,239.88,91.49,238.89,93.82Z"/><path class="cls-30" d="M240.31,84c.83-.71,3.2-2.19,4.93,1.8,1.93,4.42,3.88,9.91,3.88,9.91s0,.22-.07.69c0,.27,0,1.12,0,1.12a1.13,1.13,0,0,0-.29.49,5,5,0,0,0,0,.54l-.19.06-.07.56s-.21,0-.25,0,0,.38-.14.42c-.57-.81-6.23-12.87-7.93-15.12A.46.46,0,0,1,240.31,84Z"/><path class="cls-30" d="M261.62,85.21c2.49,5.51-3.65,9.33-5.74,10.3-.16.07-.37.14-.63.24v.36l-.42.17,0,.65-.28,0s0,.34-.08.37c-.1-.15-.34-.61-.67-1.29-1.74.17-4-.39-5.43-3.55,0,0,0-.92.37-.14.26.57,1.73.88,3.5.56-1.35-2.76-3-6.11-4.16-8a16.81,16.81,0,0,0-3.89,2.31c-.91.06-2.67-1.8-2.22-3S257,75.11,261.62,85.21ZM251.44,83.9c1.13,2.51,2.63,6.19,3.4,8.09,2.71-1.52,5.19-5,4.56-6.64C258.92,84.06,255.53,83.09,251.44,83.9Zm3,8.28L253.2,89.5l1,2.77a1.08,1.08,0,0,0,.12,0Z"/><path class="cls-30" d="M268.08,74.67a19.75,19.75,0,0,0-5.67,4.18c.14.43,9.23-2.13,11.27,3.14,1.68,4.31-.71,6.52-3.84,8a5.94,5.94,0,0,1-7.37-2.68,12.91,12.91,0,0,1-.86-3.12,23.38,23.38,0,0,0,1,2.26,20.56,20.56,0,0,1-.87-2.6l.17-.58.24.22c2.82,7.2,10.13.61,9.7-.51-.8-2-10.94,1.88-12.52-2.15-.8-2-.5-2.05-.5-2.05-1-2.54,6.29-6.59,7-6.93A2.47,2.47,0,0,1,268.08,74.67Z"/><path class="cls-31" d="M138,170.82a7.12,7.12,0,0,1-2.58,5.16,8.53,8.53,0,0,1-6.14,1.69,7.71,7.71,0,0,1-2-.47q-2-.73-2.06-.74l-2.09-.63a3.93,3.93,0,0,1-1.79-1.14,7.55,7.55,0,0,1-1.66-3.58,17.69,17.69,0,0,0-1.13-3.58,5.72,5.72,0,0,1-.73-1.29,1.8,1.8,0,0,1,.34-1.27,1.7,1.7,0,0,1,1-.74,3.55,3.55,0,0,1,1,0,23.36,23.36,0,0,1,3.72.67,6.42,6.42,0,0,1,2.42.88,11.79,11.79,0,0,1,.45,3.21q.18,2.66.95,3a.86.86,0,0,0,.39.12q.83.07,1.54-1.27a7.92,7.92,0,0,0,.84-3.09q.31-3.82-2-5.28a28.34,28.34,0,0,1-7.2-6.05,9.08,9.08,0,0,1-1.73-7,14,14,0,0,1,2.92-6.45q2.44-3.18,4.9-3.56,1-.14,6,2.42,1.23.58,2.48,1.21a5,5,0,0,1,2,1.7q1.1,1.63.8,5.4-.06.7-.21,2.06-.14,1.18-.18,1.66a5.59,5.59,0,0,0,.23,1,1.9,1.9,0,0,1,.1,1q-.24,1.92-1.8,2a8.58,8.58,0,0,1-3.19-.92,6.78,6.78,0,0,1-3.19-2.07,2.33,2.33,0,0,1,0-.88q.05-.66.39-3t.42-3.37q.15-1.89-.29-1.88-1.37,0-2.42,1.77a9.65,9.65,0,0,0-1.24,4.16q-.32,3.95,1.87,5.8l5,3.75a10.75,10.75,0,0,1,3.2,3.52A11.76,11.76,0,0,1,138,170.82Z"/><path class="cls-31" d="M160.71,145.23q4,2.58,3.6,8-.32,3.95-3.92,9.75-4,6.48-7.6,6.19a2.61,2.61,0,0,1-1.5-.81l-1.58-1.47-.6,7.46a4.72,4.72,0,0,0,.11,1.33q.22,1.08.28,1.48a2.94,2.94,0,0,1-.44,1.4,1.54,1.54,0,0,1-1.3,1,9.21,9.21,0,0,1-3.33-1.37,8.7,8.7,0,0,1-3.25-2.47,2.2,2.2,0,0,1,.15-1.84,5,5,0,0,0,.42-1.42l2.17-27.1a3.06,3.06,0,0,0-.23-1,2.19,2.19,0,0,1-.18-1q.43-2.08,1.75-2A12.24,12.24,0,0,1,147,142a10.15,10.15,0,0,0,2.43.75,9.35,9.35,0,0,0,3.41-.43,10,10,0,0,1,3-.51,4.33,4.33,0,0,1,1,.22,5,5,0,0,1,2,1.48A10.2,10.2,0,0,0,160.71,145.23Zm-3.91,3.09a6.08,6.08,0,0,0-2.9.87,9.5,9.5,0,0,0-3,2.19L150.1,162q2.43-.56,4.91-5a17.9,17.9,0,0,0,2.5-7Q157.63,148.39,156.8,148.32Z"/><path class="cls-31" d="M185.14,175.71a3.91,3.91,0,0,1-.9,1.54,2.89,2.89,0,0,1-1.2.94c-.09,0-.25,0-.47-.19a1.26,1.26,0,0,0-.55-.24.38.38,0,0,0-.18,0,17.24,17.24,0,0,0-2.8.83,25.58,25.58,0,0,0-6.27,3.34l-4.62-2.36q-2.63-1.4-2.58-2l2.65-33q0-.31,1.1-.79a3.11,3.11,0,0,1,1.56-.41,9.59,9.59,0,0,1,2.05.85,7.31,7.31,0,0,0,2.54.84,7.56,7.56,0,0,0,3.52-.91q2-1,2.49-.77a10.7,10.7,0,0,1,3,2.55q1.93,2.12,2,3,.06.4-.92,1.29t-1.55.85a1.44,1.44,0,0,1-.69-.19c-.14-.1-.24-.14-.3-.11a25.42,25.42,0,0,0-3,.6,13.15,13.15,0,0,0-5,2.16l-.57,7.15a30.06,30.06,0,0,1,4.12-1.3q.71,0,2.8,2.19t2,3a1.85,1.85,0,0,1-.71,1.09,2.88,2.88,0,0,1-1.25.74q-.44,0-1.54,0a22.71,22.71,0,0,0-6.1,2.33l-.37,4.61q1.38-.68,3.72-1.58a10.54,10.54,0,0,1,2.87-.85q.61,0,2.94,2.16T185.14,175.71Z"/><path class="cls-31" d="M214.68,181.17c-.05.26-.16.89-.33,1.87a2.12,2.12,0,0,1-.45,1.16,1.55,1.55,0,0,1-.76.07,11.45,11.45,0,0,1-3.54-1,6.8,6.8,0,0,1-3-1.92,7,7,0,0,1-.49-2.69,35.49,35.49,0,0,0-.71-5,32.78,32.78,0,0,0-5,.82,18.38,18.38,0,0,0-4.3,1.31q-.81,1.83-2.13,4.51-.18.6-.38,1.14a1.52,1.52,0,0,1-.84.84.72.72,0,0,1-.4.06,10.49,10.49,0,0,1-3.44-1.38q-2.39-1.29-2.45-1.65-.13-.63,1.08-3,1.68-3.4,2-4.17a2.66,2.66,0,0,1-.77-1.92,3,3,0,0,1,.08-.48q.13-.52,2.83-1.67l7.21-18.89a7.48,7.48,0,0,0,.2-1.93q0-1.19.38-1.47a1.64,1.64,0,0,1,1.07-.13,24.09,24.09,0,0,1,5.79,1.52q3.73,1.36,4.41,2.25a135.24,135.24,0,0,0,.8,14.76Q212.76,176.42,214.68,181.17ZM204.3,166.92q-.35-2.81-.41-3.7a57.16,57.16,0,0,1-.17-6.15q-1.05,2.08-2.54,5.8a33.89,33.89,0,0,0-1.76,4.89A42,42,0,0,1,204.3,166.92Z"/><path class="cls-31" d="M241.73,179.06q0,1.11-1.82,4t-3,2.8q-1.3-.28-5.15-5.67-4.28-6-5.32-6.87l-.65,8.07a3,3,0,0,0,.19.94,4.86,4.86,0,0,1,.23,1q.08,1.77-.93,2.22a3,3,0,0,1-1.47.15,10,10,0,0,1-3.71-1q-2-1-1.91-2.1l2.57-32.1a3.93,3.93,0,0,1,.72-1.82,2.66,2.66,0,0,1,1.38-1.19,1.38,1.38,0,0,1,.4,0,10.53,10.53,0,0,1,3.54,1.25q2.27,1.15,2.43,1.83a17,17,0,0,1-.7,3.17,32,32,0,0,0-1,5q0,.57,0,1l8.47-11a1.84,1.84,0,0,1,1.74-.83,7.7,7.7,0,0,1,3.13,1.66q2.29,1.77,2.22,3.18,0,.39-3.9,4.63a87.78,87.78,0,0,0-7.72,9.36l8,10.89a2.65,2.65,0,0,0,1.36.68C241.43,178.43,241.73,178.7,241.73,179.06Z"/><path class="cls-31" d="M279,155.43q.08-.48-.63,8.38-2,25-9,25.23a7.28,7.28,0,0,1-2.93-.68l-3.31-1.41q-1.42-.47-2.85-1a4.78,4.78,0,0,1-2.2-1.52q-1.64-2.12-2.21-8.83a86.9,86.9,0,0,1,.12-13.59,72.56,72.56,0,0,1,1.42-10,2,2,0,0,1,1.41-1.65,9.83,9.83,0,0,1,3.31.88q2.81,1,3.25,1.63a1.07,1.07,0,0,1,.16.72,4.17,4.17,0,0,1-.56,1.52,3.5,3.5,0,0,0-.52,1.53,28.82,28.82,0,0,0-.61,4.81,126.65,126.65,0,0,0-.42,14q.23,8.14,1.91,8.1,2.12,0,3.77-7.42A96.22,96.22,0,0,0,271,162.69a39.35,39.35,0,0,0,.21-6.47,3.06,3.06,0,0,0-.06-1.46,8.52,8.52,0,0,1-.31-1.08,2,2,0,0,1,1.14-2.16,1.55,1.55,0,0,1,.76-.07,14.93,14.93,0,0,1,3.63,1,7.67,7.67,0,0,1,2.67,1.32Q279.27,154,279,155.43Z"/><path class="cls-31" d="M300.44,156.44q4,2.58,3.6,8-.32,3.95-3.92,9.75-4,6.48-7.6,6.19a2.61,2.61,0,0,1-1.5-.8l-1.58-1.47-.6,7.46a4.66,4.66,0,0,0,.11,1.33c.15.72.24,1.21.28,1.48a3,3,0,0,1-.44,1.4,1.54,1.54,0,0,1-1.3,1,9.17,9.17,0,0,1-3.33-1.37,8.69,8.69,0,0,1-3.25-2.47,2.21,2.21,0,0,1,.15-1.84,5,5,0,0,0,.42-1.42l2.17-27.1a3.06,3.06,0,0,0-.23-1,2.2,2.2,0,0,1-.18-1q.43-2.08,1.75-2a12.23,12.23,0,0,1,1.74.65,10.18,10.18,0,0,0,2.43.75,9.33,9.33,0,0,0,3.41-.43,10,10,0,0,1,3-.51,4.32,4.32,0,0,1,1,.22,5,5,0,0,1,2,1.48A10.16,10.16,0,0,0,300.44,156.44Zm-3.91,3.09a6.09,6.09,0,0,0-2.89.87,9.48,9.48,0,0,0-3,2.19l-.85,10.57q2.43-.56,4.91-5a17.92,17.92,0,0,0,2.5-7Q297.36,159.59,296.53,159.53Z"/></g></g></svg>