<svg xmlns="http://www.w3.org/2000/svg" xmlns:xlink="http://www.w3.org/1999/xlink" width="1630" height="142" viewBox="0 0 1630 142"><defs><path id="onpva" d="M-168.1 650c16.38 0 31.23 7.8 42.04 20.44C-115.24 657.8-100.39 650-84 650c17.28 0 32.85 8.67 43.78 22.54C-29.3 658.67-13.72 650 3.55 650c19.18 0 36.26 10.7 47.22 27.32C61.73 660.7 78.8 650 98 650c16.98 0 32.3 8.37 43.2 21.81 10.9-13.44 26.23-21.81 43.2-21.81 16.39 0 31.24 7.8 42.05 20.42C237.26 657.8 252.11 650 268.48 650c17.28 0 32.84 8.67 43.77 22.53 10.93-13.86 26.5-22.53 43.77-22.53 19.19 0 36.27 10.7 47.23 27.34C414.21 660.7 431.29 650 450.48 650c19.53 0 36.87 11.07 47.8 28.21C509.22 661.07 526.57 650 546.1 650c16.39 0 31.24 7.8 42.05 20.43C598.96 657.8 613.81 650 630.2 650c17.28 0 32.85 8.66 43.78 22.52 10.94-13.86 26.5-22.52 43.77-22.52 19.19 0 36.27 10.7 47.23 27.32C775.95 660.7 793.03 650 812.22 650c16.97 0 32.3 8.37 43.2 21.81 10.9-13.44 26.22-21.81 43.19-21.81 16.38 0 31.22 7.8 42.03 20.42C951.46 657.8 966.3 650 982.7 650c17.28 0 32.85 8.67 43.78 22.54 10.93-13.87 26.5-22.54 43.78-22.54 19.18 0 36.25 10.68 47.22 27.3 10.96-16.62 28.04-27.3 47.22-27.3 17.9 0 33.96 9.3 44.94 24.05 10.97-14.75 27.04-24.05 44.93-24.05 17.28 0 32.85 8.67 43.78 22.54 10.93-13.87 26.5-22.54 43.77-22.54 33.08 0 59.89 31.79 59.89 71s-26.81 71-59.9 71c-17.26 0-32.83-8.67-43.76-22.54-10.93 13.87-26.5 22.54-43.78 22.54-17.9 0-33.96-9.3-44.93-24.05-10.98 14.75-27.05 24.05-44.94 24.05-19.18 0-36.26-10.68-47.22-27.3-10.97 16.62-28.04 27.3-47.22 27.3-17.28 0-32.85-8.67-43.78-22.54-10.93 13.87-26.5 22.54-43.78 22.54-16.39 0-31.23-7.8-42.05-20.42C929.84 784.2 915 792 898.61 792c-16.97 0-32.3-8.37-43.19-21.81-10.9 13.44-26.23 21.81-43.2 21.81-19.19 0-36.27-10.7-47.24-27.32C754.02 781.3 736.94 792 717.75 792c-17.27 0-32.83-8.66-43.77-22.52-10.93 13.86-26.5 22.52-43.78 22.52-16.39 0-31.24-7.8-42.06-20.43C577.33 784.2 562.48 792 546.1 792c-19.52 0-36.87-11.07-47.8-28.21C487.34 780.93 470 792 450.48 792c-19.2 0-36.28-10.7-47.24-27.34C392.29 781.3 375.21 792 356.02 792c-17.28 0-32.84-8.67-43.77-22.53-10.93 13.86-26.5 22.53-43.77 22.53-16.37 0-31.22-7.8-42.03-20.42C215.64 784.2 200.8 792 184.41 792c-16.98 0-32.3-8.37-43.2-21.81C130.3 783.63 114.97 792 98 792c-19.19 0-36.27-10.7-47.23-27.32C39.8 781.3 22.73 792 3.55 792c-17.28 0-32.84-8.67-43.77-22.54C-51.15 783.33-66.72 792-84 792c-16.4 0-31.24-7.8-42.06-20.44-10.81 12.64-25.66 20.44-42.05 20.44-33.08 0-59.89-31.79-59.89-71s26.81-71 59.9-71z"/></defs><g><g transform="translate(228 -650)"><use fill="#ebebeb" xlink:href="#onpva"/><use fill="#ffd100" xlink:href="#onpva"/></g></g></svg>