<svg xmlns="http://www.w3.org/2000/svg" xmlns:xlink="http://www.w3.org/1999/xlink" width="1691" height="142" viewBox="0 0 1691 142"><defs><path id="bqm3a" d="M-235.87 630c17 0 32.4 7.8 43.62 20.45 11.22-12.64 26.63-20.45 43.64-20.45 17.93 0 34.08 8.67 45.42 22.54C-91.85 638.67-75.7 630-57.79 630c19.91 0 37.62 10.7 49 27.33C2.57 640.69 20.3 630 40.2 630c17.6 0 33.5 8.37 44.8 21.81C96.34 638.37 112.24 630 129.85 630c17 0 32.4 7.8 43.62 20.42 11.22-12.63 26.61-20.42 43.6-20.42 17.92 0 34.07 8.67 45.4 22.54 11.35-13.87 27.5-22.54 45.42-22.54 19.9 0 37.63 10.7 49 27.35 11.36-16.65 29.09-27.35 49-27.35 20.25 0 38.23 11.07 49.58 28.21C466.8 641.07 484.8 630 505.06 630c17 0 32.4 7.8 43.63 20.43C559.9 637.79 575.3 630 592.3 630c17.93 0 34.08 8.67 45.42 22.53 11.34-13.86 27.5-22.53 45.41-22.53 19.9 0 37.63 10.7 49 27.33 11.37-16.63 29.1-27.33 49-27.33 17.6 0 33.5 8.37 44.81 21.81 11.31-13.44 27.2-21.81 44.82-21.81 16.99 0 32.39 7.8 43.6 20.42C925.6 637.8 941 630 958 630c17.92 0 34.08 8.67 45.42 22.53 11.34-13.86 27.49-22.53 45.4-22.53 19.9 0 37.62 10.69 49 27.31 11.37-16.62 29.09-27.31 49-27.31 18.56 0 35.23 9.3 46.62 24.04 11.38-14.74 28.04-24.04 46.6-24.04 17.93 0 34.09 8.67 45.43 22.54 11.34-13.87 27.48-22.54 45.4-22.54 34.32 0 62.13 31.79 62.13 71s-27.81 71-62.12 71c-17.93 0-34.07-8.67-45.41-22.54-11.34 13.87-27.5 22.54-45.42 22.54-18.57 0-35.23-9.3-46.61-24.04-11.4 14.74-28.06 24.04-46.63 24.04-19.9 0-37.62-10.69-49-27.31-11.37 16.62-29.08 27.31-48.98 27.31-17.92 0-34.07-8.67-45.41-22.53C992.08 763.33 975.92 772 958 772c-17 0-32.4-7.8-43.62-20.42C903.16 764.2 887.76 772 870.77 772c-17.61 0-33.51-8.37-44.82-21.81-11.3 13.44-27.2 21.81-44.8 21.81-19.92 0-37.64-10.7-49-27.33-11.38 16.63-29.1 27.33-49 27.33-17.93 0-34.08-8.67-45.42-22.53-11.34 13.86-27.5 22.53-45.42 22.53-17 0-32.4-7.8-43.62-20.43-11.22 12.64-26.63 20.43-43.63 20.43-20.26 0-38.26-11.07-49.6-28.21C444.1 760.93 426.13 772 405.88 772c-19.91 0-37.64-10.7-49-27.35-11.37 16.65-29.1 27.35-49 27.35-17.92 0-34.07-8.67-45.41-22.54-11.34 13.87-27.49 22.54-45.4 22.54-17 0-32.4-7.8-43.6-20.42-11.23 12.63-26.63 20.42-43.63 20.42-17.61 0-33.51-8.37-44.82-21.81C73.72 763.63 57.82 772 40.2 772c-19.9 0-37.62-10.7-49-27.33C-20.17 761.31-37.88 772-57.78 772c-17.92 0-34.07-8.67-45.41-22.54-11.34 13.87-27.5 22.54-45.42 22.54-17 0-32.42-7.8-43.64-20.45-11.22 12.64-26.62 20.45-43.62 20.45-34.32 0-62.13-31.79-62.13-71s27.81-71 62.13-71z"/></defs><g><g opacity=".2" transform="translate(298 -630)"><use fill="#ebebeb" xlink:href="#bqm3a"/><use fill="#5cb28c" xlink:href="#bqm3a"/></g></g></svg>